<svg xmlns="http://www.w3.org/2000/svg" width="300" height="300" viewBox="0 0 300 300" version="1.1"><path d="M 149.452 8.646 C 146.988 11.305, 146.195 15.384, 147.934 16.459 C 148.447 16.776, 148.829 15.677, 148.781 14.015 C 148.678 10.365, 151.259 7.259, 154.854 6.706 L 157.500 6.300 154.702 6.150 C 152.831 6.050, 151.092 6.877, 149.452 8.646 M 159.232 9 C 159.919 10.100, 160.893 11, 161.396 11 C 161.898 11, 161.495 10.100, 160.500 9 C 159.505 7.900, 158.531 7, 158.337 7 C 158.142 7, 158.545 7.900, 159.232 9 M 159.099 18.250 C 157.722 20.492, 157.724 20.493, 159.858 18.595 C 162.150 16.557, 162.446 16, 161.241 16 C 160.823 16, 159.859 17.012, 159.099 18.250 M 153.750 20.662 C 154.438 20.940, 155.563 20.940, 156.250 20.662 C 156.938 20.385, 156.375 20.158, 155 20.158 C 153.625 20.158, 153.063 20.385, 153.750 20.662 M 146.500 41.054 C 144.190 41.600, 144.921 41.791, 149.677 41.882 C 154.657 41.977, 155.942 42.339, 156.311 43.750 C 156.723 45.328, 156.779 45.334, 156.884 43.809 C 156.948 42.879, 156.561 41.846, 156.023 41.514 C 154.420 40.524, 149.705 40.295, 146.500 41.054 M 138.619 41.808 C 138.315 42.299, 139.176 44.206, 140.533 46.045 C 143.497 50.063, 143.646 49.691, 141.086 44.668 C 140.033 42.603, 138.923 41.316, 138.619 41.808 M 166.750 42.662 C 167.438 42.940, 168.563 42.940, 169.250 42.662 C 169.938 42.385, 169.375 42.158, 168 42.158 C 166.625 42.158, 166.063 42.385, 166.750 42.662 M 172.750 43.662 C 173.438 43.940, 174.563 43.940, 175.250 43.662 C 175.938 43.385, 175.375 43.158, 174 43.158 C 172.625 43.158, 172.063 43.385, 172.750 43.662 M 119.733 45.750 C 117.865 47.823, 116.182 53.624, 117.725 52.670 C 118.284 52.324, 118.997 50.763, 119.310 49.201 C 119.631 47.594, 120.882 45.877, 122.189 45.248 C 123.757 44.493, 123.987 44.114, 122.905 44.068 C 122.028 44.030, 120.600 44.788, 119.733 45.750 M 126.500 45 C 126.840 45.550, 127.568 46, 128.118 46 C 128.668 46, 128.840 45.550, 128.500 45 C 128.160 44.450, 127.432 44, 126.882 44 C 126.332 44, 126.160 44.450, 126.500 45 M 178 44.393 C 178 44.609, 178.675 45.045, 179.500 45.362 C 180.325 45.678, 181 45.501, 181 44.969 C 181 44.436, 180.325 44, 179.500 44 C 178.675 44, 178 44.177, 178 44.393 M 131.960 50 C 134.851 54.690, 138.020 61.867, 138.703 65.271 C 139.008 66.795, 139.668 68.295, 140.169 68.605 C 142.902 70.294, 135.823 53.207, 132.047 49 L 129.803 46.500 131.960 50 M 106.664 48.750 C 106.414 49.163, 106.797 50.042, 107.515 50.705 C 108.538 51.650, 108.933 51.617, 109.341 50.553 C 110.133 48.489, 107.781 46.904, 106.664 48.750 M 167 50.382 C 167 51.207, 167.450 52.160, 168 52.500 C 168.550 52.840, 169 52.443, 169 51.618 C 169 50.793, 168.550 49.840, 168 49.500 C 167.450 49.160, 167 49.557, 167 50.382 M 188 50.500 C 188 51.325, 188.436 52, 188.969 52 C 189.501 52, 189.678 51.325, 189.362 50.500 C 189.045 49.675, 188.609 49, 188.393 49 C 188.177 49, 188 49.675, 188 50.500 M 158.339 53 C 158.687 54.375, 158.979 56.063, 158.986 56.750 C 158.994 57.438, 159.419 58, 159.930 58 C 160.497 58, 160.509 56.776, 159.961 54.864 C 158.881 51.097, 157.435 49.436, 158.339 53 M 144.485 53.500 C 144.887 54.600, 146.117 58.113, 147.219 61.306 C 148.320 64.499, 149.442 66.891, 149.713 66.621 C 150.417 65.916, 146.988 55.874, 145.233 53.500 L 143.754 51.500 144.485 53.500 M 189.015 54.750 C 189.007 55.987, 189.450 57, 190 57 C 191.253 57, 191.253 55.939, 190 54 C 189.216 52.787, 189.028 52.931, 189.015 54.750 M 198.389 54.750 C 198.677 55.712, 199.666 59.554, 200.587 63.286 C 201.508 67.018, 202.462 69.871, 202.708 69.625 C 203.435 68.899, 199.594 53, 198.692 53 C 198.237 53, 198.101 53.788, 198.389 54.750 M 205 53.987 C 205 54.678, 207.352 56, 208.582 56 C 209.946 56, 208.665 54.146, 207 53.710 C 205.900 53.423, 205 53.547, 205 53.987 M 168.365 55.750 C 168.640 56.712, 169.583 60.401, 170.462 63.946 C 171.952 69.961, 173.969 74.497, 172.708 69 C 172.393 67.625, 171.565 63.688, 170.867 60.250 C 170.170 56.813, 169.210 54, 168.733 54 C 168.256 54, 168.090 54.788, 168.365 55.750 M 107.568 56.252 C 107.137 57.216, 107.139 59.241, 107.573 60.752 C 108.314 63.337, 108.384 63.366, 108.750 61.250 C 108.964 60.013, 108.962 57.987, 108.745 56.750 C 108.400 54.774, 108.256 54.714, 107.568 56.252 M 87.597 57.844 C 87.063 58.707, 88.765 66, 89.500 66 C 89.724 66, 89.815 63.978, 89.703 61.507 C 89.511 57.256, 88.763 55.956, 87.597 57.844 M 213.559 58.468 C 214.626 59.276, 215.924 59.951, 216.441 59.968 C 216.959 59.986, 216.509 59.339, 215.441 58.532 C 214.374 57.724, 213.076 57.049, 212.559 57.032 C 212.041 57.014, 212.491 57.661, 213.559 58.468 M 190.015 59.191 C 190.007 60.121, 190.450 61.160, 191 61.500 C 192.266 62.282, 192.266 60.958, 191 59 C 190.165 57.707, 190.029 57.734, 190.015 59.191 M 160.015 60.750 C 160.007 61.987, 160.450 63, 161 63 C 162.253 63, 162.253 61.939, 161 60 C 160.216 58.787, 160.028 58.931, 160.015 60.750 M 221 62.924 C 221 63.398, 221.675 64.045, 222.500 64.362 C 223.325 64.678, 224 64.549, 224 64.076 C 224 63.602, 223.325 62.955, 222.500 62.638 C 221.675 62.322, 221 62.451, 221 62.924 M 79.500 66 C 79.891 67.925, 80.622 69.936, 81.124 70.469 C 81.679 71.057, 81.782 70.076, 81.387 67.969 C 81.028 66.061, 80.298 64.050, 79.762 63.500 C 79.130 62.850, 79.038 63.725, 79.500 66 M 191 64.441 C 191 65.298, 191.450 66, 192 66 C 192.550 66, 193 65.577, 193 65.059 C 193 64.541, 192.550 63.840, 192 63.500 C 191.450 63.160, 191 63.584, 191 64.441 M 161 65.382 C 161 66.207, 161.450 67.160, 162 67.500 C 162.550 67.840, 163 67.443, 163 66.618 C 163 65.793, 162.550 64.840, 162 64.500 C 161.450 64.160, 161 64.557, 161 65.382 M 117.031 68.500 C 117.031 70.150, 117.467 72.175, 118 73 C 118.744 74.151, 118.969 73.802, 118.969 71.500 C 118.969 69.850, 118.533 67.825, 118 67 C 117.256 65.849, 117.031 66.198, 117.031 68.500 M 89.638 68.500 C 89.955 69.325, 90.391 70, 90.607 70 C 90.823 70, 91 69.325, 91 68.500 C 91 67.675, 90.564 67, 90.031 67 C 89.499 67, 89.322 67.675, 89.638 68.500 M 108.070 70.191 C 108.032 72.221, 108.450 74.160, 109 74.500 C 110.207 75.246, 110.207 71.308, 109 68.500 C 108.307 66.888, 108.127 67.216, 108.070 70.191 M 70.015 69.954 C 68.648 71.004, 67.784 72.117, 68.094 72.428 C 68.405 72.738, 69.714 71.869, 71.004 70.496 C 73.792 67.528, 73.431 67.329, 70.015 69.954 M 192.638 69.500 C 192.955 70.325, 193.391 71, 193.607 71 C 193.823 71, 194 70.325, 194 69.500 C 194 68.675, 193.564 68, 193.031 68 C 192.499 68, 192.322 68.675, 192.638 69.500 M 231.437 70.830 C 233.052 72.573, 234.767 74, 235.246 74 C 236.663 74, 235.167 72.250, 231.720 69.876 L 228.500 67.659 231.437 70.830 M 162 69.882 C 162 70.432, 162.450 71.160, 163 71.500 C 163.550 71.840, 164 71.668, 164 71.118 C 164 70.568, 163.550 69.840, 163 69.500 C 162.450 69.160, 162 69.332, 162 69.882 M 63.494 76.006 C 62.496 77.110, 61.864 78.190, 62.089 78.408 C 62.315 78.626, 63.309 77.723, 64.297 76.402 C 66.479 73.484, 65.994 73.245, 63.494 76.006 M 204.030 75.795 C 203.990 77.530, 208.878 97.212, 209.506 97.839 C 210.392 98.726, 210.034 96.301, 207.878 86.826 C 205.847 77.897, 204.099 72.886, 204.030 75.795 M 118.015 77.191 C 118.024 77.911, 118.467 79.175, 119 80 C 119.788 81.219, 119.972 81.090, 119.985 79.309 C 119.993 78.104, 119.550 76.840, 119 76.500 C 118.450 76.160, 118.007 76.471, 118.015 77.191 M 151.636 77.506 C 151.321 78.328, 151.472 79, 151.972 79 C 153.328 79, 154.170 77.223, 153.121 76.575 C 152.620 76.265, 151.952 76.684, 151.636 77.506 M 109.015 78.691 C 109.007 79.896, 109.450 81.160, 110 81.500 C 111.273 82.287, 111.273 79.970, 110 78 C 109.212 76.781, 109.028 76.910, 109.015 78.691 M 143.015 78.191 C 143.007 79.121, 143.450 80.160, 144 80.500 C 145.266 81.282, 145.266 79.958, 144 78 C 143.165 76.707, 143.029 76.734, 143.015 78.191 M 174 77.238 C 174 78.032, 176.897 90.842, 177.638 93.325 C 177.938 94.329, 178.405 94.928, 178.677 94.656 C 179.357 93.976, 175.973 78.728, 174.880 77.550 C 174.396 77.027, 174 76.887, 174 77.238 M 195 78.441 C 195 79.234, 195.408 80.134, 195.907 80.442 C 196.405 80.751, 196.578 80.102, 196.290 79.001 C 195.679 76.666, 195 76.371, 195 78.441 M 148 79 C 146.718 79.828, 146.754 79.972, 148.250 79.985 C 149.213 79.993, 150 79.550, 150 79 C 150 77.780, 149.887 77.780, 148 79 M 93.475 83.125 C 94.854 89.880, 96.143 94.191, 96.635 93.698 C 97.416 92.917, 94.853 81.027, 93.758 80.351 C 93.153 79.977, 93.046 81.024, 93.475 83.125 M 84 82.353 C 84 84.741, 87.376 97.661, 88.219 98.500 C 88.892 99.169, 89.046 98.838, 88.684 97.500 C 88.386 96.400, 87.589 92.800, 86.913 89.500 C 85.876 84.440, 84 79.837, 84 82.353 M 196.343 84.094 C 196.705 85.417, 197.283 88.188, 197.628 90.250 C 197.973 92.313, 198.696 94, 199.235 94 C 199.773 94, 199.940 93.286, 199.605 92.413 C 199.270 91.539, 198.713 89.055, 198.366 86.890 C 198.020 84.726, 197.276 82.670, 196.711 82.321 C 196.056 81.917, 195.923 82.558, 196.343 84.094 M 244.945 83.500 C 245.518 84.600, 247.831 87.525, 250.087 90 C 252.343 92.475, 253.720 93.600, 253.148 92.500 C 252.575 91.400, 250.262 88.475, 248.006 86 C 245.750 83.525, 244.373 82.400, 244.945 83.500 M 119.710 85 C 119.998 86.100, 120.406 87, 120.617 87 C 120.827 87, 121 86.100, 121 85 C 121 83.900, 120.592 83, 120.094 83 C 119.595 83, 119.423 83.900, 119.710 85 M 166.030 83.303 C 165.947 85.495, 169.344 98.629, 170.219 99.500 C 170.892 100.169, 171.051 99.838, 170.700 98.500 C 170.411 97.400, 169.627 94.025, 168.959 91 C 167.844 85.957, 166.103 81.382, 166.030 83.303 M 64.477 88 C 65.789 94.678, 67.134 99.199, 67.655 98.679 C 68.382 97.951, 65.896 86.725, 64.736 85.500 C 64.137 84.867, 64.042 85.784, 64.477 88 M 110.625 85.798 C 110.354 86.237, 110.545 87.249, 111.051 88.048 C 111.768 89.182, 111.973 89.007, 111.985 87.250 C 112 84.937, 111.492 84.394, 110.625 85.798 M 51.042 89.605 C 49.301 91.588, 48.191 93.500, 48.575 93.855 C 48.959 94.210, 49.485 93.907, 49.743 93.183 C 50 92.458, 51.245 90.664, 52.509 89.195 L 54.806 86.524 56.038 92.787 C 56.715 96.231, 57.659 99.289, 58.135 99.583 C 59.224 100.257, 59.216 99.386, 58.091 95 C 57.598 93.075, 56.917 90.263, 56.578 88.750 C 55.768 85.135, 54.841 85.278, 51.042 89.605 M 121.158 91 C 121.158 92.375, 121.385 92.938, 121.662 92.250 C 121.940 91.563, 121.940 90.438, 121.662 89.750 C 121.385 89.063, 121.158 89.625, 121.158 91 M 112.158 93 C 112.158 94.375, 112.385 94.938, 112.662 94.250 C 112.940 93.563, 112.940 92.438, 112.662 91.750 C 112.385 91.063, 112.158 91.625, 112.158 93 M 44.796 98.750 C 40.754 104.872, 39 107.883, 39 108.697 C 39 109.119, 40.041 107.897, 41.314 105.982 C 45.169 100.180, 48.189 95, 47.718 95 C 47.473 95, 46.158 96.688, 44.796 98.750 M 96.638 96.500 C 96.955 97.325, 97.391 98, 97.607 98 C 97.823 98, 98 97.325, 98 96.500 C 98 95.675, 97.564 95, 97.031 95 C 96.499 95, 96.322 95.675, 96.638 96.500 M 122.015 96.191 C 122.007 97.121, 122.450 98.160, 123 98.500 C 124.266 99.282, 124.266 97.958, 123 96 C 122.165 94.707, 122.029 94.734, 122.015 96.191 M 199.015 96.191 C 199.007 97.121, 199.450 98.160, 200 98.500 C 201.266 99.282, 201.266 97.958, 200 96 C 199.165 94.707, 199.029 94.734, 199.015 96.191 M 256.182 98.742 C 257.457 101.076, 258.853 102.988, 259.285 102.992 C 260.244 103.002, 258.779 100.361, 255.961 97 C 254.051 94.723, 254.071 94.879, 256.182 98.742 M 113 96.694 C 113 97.995, 116.955 118.024, 117.581 119.893 C 117.837 120.659, 118.274 121.059, 118.552 120.781 C 119.113 120.220, 114.385 97.051, 113.536 96.202 C 113.241 95.908, 113 96.129, 113 96.694 M 178.638 97.500 C 178.955 98.325, 179.391 99, 179.607 99 C 179.823 99, 180 98.325, 180 97.500 C 180 96.675, 179.564 96, 179.031 96 C 178.499 96, 178.322 96.675, 178.638 97.500 M 88.015 100.691 C 88.024 101.136, 88.467 102.175, 89 103 C 89.835 104.293, 89.971 104.266, 89.985 102.809 C 89.993 101.879, 89.550 100.840, 89 100.500 C 88.450 100.160, 88.007 100.246, 88.015 100.691 M 123.306 102.101 C 123.635 103.420, 124.210 106.422, 124.584 108.772 C 124.957 111.122, 125.719 113.326, 126.277 113.671 C 126.911 114.063, 127.067 113.398, 126.694 111.899 C 126.365 110.580, 125.790 107.578, 125.416 105.228 C 125.043 102.878, 124.281 100.674, 123.723 100.329 C 123.089 99.937, 122.933 100.602, 123.306 102.101 M 211.318 105.500 C 211.617 106.600, 212.625 111.100, 213.558 115.500 C 215.139 122.961, 216.900 128.030, 216.970 125.326 C 217.036 122.771, 212.712 105.439, 211.774 104.500 C 211.109 103.834, 210.957 104.168, 211.318 105.500 M 260.191 104.500 C 261.825 108.681, 268.374 121.960, 268.660 121.673 C 269.288 121.045, 264.712 110.637, 262.209 107 C 260.884 105.075, 259.976 103.950, 260.191 104.500 M 100 109.382 C 100 110.207, 100.450 111.160, 101 111.500 C 101.550 111.840, 102 111.443, 102 110.618 C 102 109.793, 101.550 108.840, 101 108.500 C 100.450 108.160, 100 108.557, 100 109.382 M 70 109.882 C 70 110.432, 70.450 111.160, 71 111.500 C 71.550 111.840, 72 111.668, 72 111.118 C 72 110.568, 71.550 109.840, 71 109.500 C 70.450 109.160, 70 109.332, 70 109.882 M 182.350 111 C 182.693 112.375, 182.979 114.287, 182.986 115.250 C 182.994 116.213, 183.486 117, 184.079 117 C 185.371 117, 184.316 111.011, 182.759 109.500 C 182.055 108.818, 181.926 109.294, 182.350 111 M 203.030 109.688 C 202.998 110.954, 205.743 123.557, 206.560 125.893 C 206.828 126.659, 207.265 127.068, 207.532 126.802 C 208.122 126.211, 205.070 112.097, 203.899 110 C 203.415 109.134, 203.048 109.002, 203.030 109.688 M 91.339 112 C 91.687 113.375, 91.979 115.063, 91.986 115.750 C 91.994 116.438, 92.419 117, 92.930 117 C 93.497 117, 93.509 115.776, 92.961 113.864 C 91.881 110.097, 90.435 108.436, 91.339 112 M 173.030 111.261 C 172.991 112.242, 176.893 130.062, 177.549 131.893 C 177.823 132.659, 178.269 133.064, 178.541 132.793 C 179.136 132.198, 175.110 114.125, 173.909 112 C 173.442 111.175, 173.047 110.842, 173.030 111.261 M 35.574 114.857 C 33.798 118.291, 33.663 119, 34.781 119 C 35.666 119, 38.185 112.851, 37.556 112.223 C 37.331 111.998, 36.439 113.184, 35.574 114.857 M 101.015 113.691 C 101.024 114.136, 101.467 115.175, 102 116 C 102.835 117.293, 102.971 117.266, 102.985 115.809 C 102.993 114.879, 102.550 113.840, 102 113.500 C 101.450 113.160, 101.007 113.246, 101.015 113.691 M 71 115 C 71 115.550, 71.450 116, 72 116 C 72.550 116, 73 115.550, 73 115 C 73 114.450, 72.550 114, 72 114 C 71.450 114, 71 114.450, 71 115 M 62 116.382 C 62 117.207, 62.450 118.160, 63 118.500 C 63.550 118.840, 64 118.443, 64 117.618 C 64 116.793, 63.550 115.840, 63 115.500 C 62.450 115.160, 62 115.557, 62 116.382 M 126.070 115.691 C 126.109 116.136, 126.527 117.400, 127 118.500 C 127.829 120.428, 127.862 120.421, 127.930 118.309 C 127.968 117.104, 127.550 115.840, 127 115.500 C 126.450 115.160, 126.032 115.246, 126.070 115.691 M 72 118.882 C 72 119.432, 72.450 120.160, 73 120.500 C 73.550 120.840, 74 120.668, 74 120.118 C 74 119.568, 73.550 118.840, 73 118.500 C 72.450 118.160, 72 118.332, 72 118.882 M 93 120.059 C 93 121.191, 93.430 121.852, 93.956 121.527 C 94.482 121.202, 94.659 120.275, 94.349 119.468 C 93.556 117.401, 93 117.644, 93 120.059 M 102.610 120.750 C 102.967 122.263, 103.711 123.950, 104.265 124.500 C 104.940 125.170, 105.067 124.676, 104.650 123 C 104.307 121.625, 104.021 119.938, 104.014 119.250 C 104.006 118.563, 103.541 118, 102.981 118 C 102.379 118, 102.227 119.125, 102.610 120.750 M 184.015 119.750 C 184.024 120.162, 184.467 121.175, 185 122 C 185.784 123.213, 185.972 123.069, 185.985 121.250 C 185.993 120.013, 185.550 119, 185 119 C 184.450 119, 184.007 119.338, 184.015 119.750 M 63.015 120.691 C 63.024 121.136, 63.467 122.175, 64 123 C 64.835 124.293, 64.971 124.266, 64.985 122.809 C 64.993 121.879, 64.550 120.840, 64 120.500 C 63.450 120.160, 63.007 120.246, 63.015 120.691 M 90 122 C 88.718 122.828, 88.754 122.972, 90.250 122.985 C 91.213 122.993, 92 122.550, 92 122 C 92 120.780, 91.887 120.780, 90 122 M 73.032 123.128 C 72.984 125.581, 75.796 127.604, 77.242 126.158 C 78.119 125.281, 78.075 125, 77.060 125 C 76.323 125, 75.123 124.213, 74.392 123.250 C 73.213 121.697, 73.060 121.683, 73.032 123.128 M 186.039 127.136 C 187.119 130.903, 188.565 132.564, 187.661 129 C 187.313 127.625, 187.021 125.938, 187.014 125.250 C 187.006 124.563, 186.581 124, 186.070 124 C 185.503 124, 185.491 125.224, 186.039 127.136 M 64 125.941 C 64 126.459, 64.450 127.160, 65 127.500 C 65.550 127.840, 66 127.416, 66 126.559 C 66 125.702, 65.550 125, 65 125 C 64.450 125, 64 125.423, 64 125.941 M 270.017 126.050 C 270.027 126.297, 270.892 129.803, 271.941 133.840 C 273.765 140.864, 275 143.780, 275 141.061 C 275 138.706, 271.854 127.509, 270.923 126.550 C 270.415 126.027, 270.008 125.802, 270.017 126.050 M 29.697 129.750 C 28.675 131.572, 27.916 136.439, 28.800 135.500 C 29.836 134.400, 31.313 129, 30.578 129 C 30.325 129, 29.929 129.338, 29.697 129.750 M 65.015 129.750 C 65.024 130.162, 65.467 131.175, 66 132 C 66.784 133.213, 66.972 133.069, 66.985 131.250 C 66.993 130.012, 66.550 129, 66 129 C 65.450 129, 65.007 129.338, 65.015 129.750 M 92 131 C 90.718 131.828, 90.754 131.972, 92.250 131.985 C 93.213 131.993, 94 131.550, 94 131 C 94 129.780, 93.887 129.780, 92 131 M 121 132.500 C 121 133.325, 121.436 134, 121.969 134 C 122.501 134, 122.678 133.325, 122.362 132.500 C 122.045 131.675, 121.609 131, 121.393 131 C 121.177 131, 121 131.675, 121 132.500 M 82 133.969 C 82 134.501, 82.675 134.678, 83.500 134.362 C 84.325 134.045, 85 133.609, 85 133.393 C 85 133.177, 84.325 133, 83.500 133 C 82.675 133, 82 133.436, 82 133.969 M 77.500 135 C 77.160 135.550, 77.332 136, 77.882 136 C 78.432 136, 79.160 135.550, 79.500 135 C 79.840 134.450, 79.668 134, 79.118 134 C 78.568 134, 77.840 134.450, 77.500 135 M 131.343 136.094 C 131.705 137.417, 132.285 140.197, 132.632 142.272 C 132.979 144.347, 133.724 146.330, 134.289 146.679 C 134.944 147.083, 135.077 146.442, 134.657 144.906 C 134.295 143.583, 133.715 140.803, 133.368 138.728 C 133.021 136.653, 132.276 134.670, 131.711 134.321 C 131.056 133.917, 130.923 134.558, 131.343 136.094 M 122.015 136.750 C 122.007 137.988, 122.450 139, 123 139 C 124.253 139, 124.253 137.939, 123 136 C 122.216 134.787, 122.028 134.931, 122.015 136.750 M 107.015 137.191 C 107.007 138.121, 107.450 139.160, 108 139.500 C 109.266 140.282, 109.266 138.958, 108 137 C 107.165 135.707, 107.029 135.734, 107.015 137.191 M 219.015 136.691 C 219.024 137.136, 219.467 138.175, 220 139 C 220.835 140.293, 220.971 140.266, 220.985 138.809 C 220.993 137.879, 220.550 136.840, 220 136.500 C 219.450 136.160, 219.007 136.246, 219.015 136.691 M 27.698 137.683 C 26.926 138.936, 25.702 148, 26.304 148 C 26.984 148, 29.180 137.847, 28.621 137.288 C 28.390 137.056, 27.974 137.234, 27.698 137.683 M 189.015 138.191 C 189.007 139.121, 189.450 140.160, 190 140.500 C 191.266 141.282, 191.266 139.958, 190 138 C 189.165 136.707, 189.029 136.734, 189.015 138.191 M 210.087 137.674 C 209.946 139.578, 214.162 157.364, 215.142 159 C 215.709 159.946, 215.793 159.023, 215.370 156.500 C 214.530 151.496, 210.205 136.084, 210.087 137.674 M 68.158 140 C 68.158 141.375, 68.385 141.938, 68.662 141.250 C 68.940 140.563, 68.940 139.438, 68.662 138.750 C 68.385 138.063, 68.158 138.625, 68.158 140 M 180.030 139.120 C 179.981 140.128, 184.777 160.236, 185.846 163.500 C 187.699 169.160, 186.998 164.031, 184.381 152.769 C 182.151 143.175, 180.141 136.868, 180.030 139.120 M 123.448 142.946 C 124.347 148.281, 126.082 154.252, 126.586 153.747 C 127.216 153.117, 124.983 142.840, 123.817 141 C 123.160 139.963, 123.046 140.564, 123.448 142.946 M 78 141.238 C 78 142.032, 80.897 154.842, 81.638 157.325 C 81.938 158.329, 82.378 158.956, 82.616 158.717 C 83.239 158.094, 79.855 142.684, 78.846 141.550 C 78.381 141.028, 78 140.887, 78 141.238 M 108.015 141.691 C 108.024 142.136, 108.467 143.175, 109 144 C 109.835 145.293, 109.971 145.266, 109.985 143.809 C 109.993 142.879, 109.550 141.840, 109 141.500 C 108.450 141.160, 108.007 141.246, 108.015 141.691 M 220.395 142.587 C 220.730 143.461, 221.287 145.945, 221.634 148.110 C 221.980 150.274, 222.724 152.330, 223.289 152.679 C 223.944 153.083, 224.077 152.442, 223.657 150.906 C 223.295 149.583, 222.717 146.813, 222.372 144.750 C 222.027 142.688, 221.304 141, 220.765 141 C 220.227 141, 220.060 141.714, 220.395 142.587 M 99.460 145 C 100.740 151.456, 104.239 164.094, 104.637 163.697 C 105.185 163.149, 100.364 143.023, 99.483 142.184 C 99.089 141.808, 99.079 143.075, 99.460 145 M 190.015 142.691 C 190.024 143.136, 190.467 144.175, 191 145 C 191.835 146.293, 191.971 146.266, 191.985 144.809 C 191.993 143.879, 191.550 142.840, 191 142.500 C 190.450 142.160, 190.007 142.246, 190.015 142.691 M 69 144.500 C 69 145.325, 69.436 146, 69.969 146 C 70.501 146, 70.678 145.325, 70.362 144.500 C 70.045 143.675, 69.609 143, 69.393 143 C 69.177 143, 69 143.675, 69 144.500 M 274.684 143.750 C 274.446 144.162, 274.612 145.400, 275.055 146.500 C 275.757 148.246, 275.868 148.151, 275.930 145.750 C 275.999 143.037, 275.531 142.286, 274.684 143.750 M 109 146.941 C 109 147.459, 109.450 148.160, 110 148.500 C 110.550 148.840, 111 148.416, 111 147.559 C 111 146.702, 110.550 146, 110 146 C 109.450 146, 109 146.423, 109 146.941 M 70.015 148.191 C 70.007 149.121, 70.450 150.160, 71 150.500 C 72.266 151.282, 72.266 149.958, 71 148 C 70.165 146.707, 70.029 146.734, 70.015 148.191 M 191.616 149.750 C 192.667 154.169, 194.229 156.071, 193.567 152.125 C 193.255 150.269, 193 148.356, 193 147.875 C 193 147.394, 192.541 147, 191.981 147 C 191.377 147, 191.229 148.121, 191.616 149.750 M 166 149 C 166 149.550, 166.423 150, 166.941 150 C 167.459 150, 168.160 149.550, 168.500 149 C 168.840 148.450, 168.416 148, 167.559 148 C 166.702 148, 166 148.450, 166 149 M 25 151.941 C 25 153.623, 25.173 155, 25.383 155 C 26.232 155, 26.671 149.915, 25.866 149.417 C 25.390 149.123, 25 150.259, 25 151.941 M 161.667 149.667 C 160.579 150.755, 160.909 154, 162.107 154 C 162.716 154, 162.976 153.380, 162.685 152.622 C 162.394 151.864, 162.661 150.739, 163.278 150.122 C 163.993 149.407, 164.025 149, 163.367 149 C 162.798 149, 162.033 149.300, 161.667 149.667 M 276.272 153 C 276.272 155.475, 276.467 156.488, 276.706 155.250 C 276.944 154.012, 276.944 151.988, 276.706 150.750 C 276.467 149.512, 276.272 150.525, 276.272 153 M 110.015 150.750 C 110.024 151.162, 110.467 152.175, 111 153 C 111.784 154.213, 111.972 154.069, 111.985 152.250 C 111.993 151.012, 111.550 150, 111 150 C 110.450 150, 110.007 150.338, 110.015 150.750 M 170.710 152 C 170.998 153.100, 171.406 154, 171.617 154 C 171.827 154, 172 153.100, 172 152 C 172 150.900, 171.592 150, 171.094 150 C 170.595 150, 170.423 150.900, 170.710 152 M 71 153.441 C 71 154.298, 71.450 155, 72 155 C 72.550 155, 73 154.577, 73 154.059 C 73 153.541, 72.550 152.840, 72 152.500 C 71.450 152.160, 71 152.584, 71 153.441 M 111.638 156.500 C 111.955 157.325, 112.391 158, 112.607 158 C 112.823 158, 113 157.325, 113 156.500 C 113 155.675, 112.564 155, 112.031 155 C 111.499 155, 111.322 155.675, 111.638 156.500 M 162.031 156 C 162.031 156.825, 162.467 158.175, 163 159 C 163.862 160.333, 163.969 160.333, 163.969 159 C 163.969 158.175, 163.533 156.825, 163 156 C 162.138 154.667, 162.031 154.667, 162.031 156 M 171.710 157 C 171.998 158.100, 172.406 159, 172.617 159 C 172.827 159, 173 158.100, 173 157 C 173 155.900, 172.592 155, 172.094 155 C 171.595 155, 171.423 155.900, 171.710 157 M 72.015 157.191 C 72.007 158.121, 72.450 159.160, 73 159.500 C 74.266 160.282, 74.266 158.958, 73 157 C 72.165 155.707, 72.029 155.734, 72.015 157.191 M 193.638 157.500 C 193.955 158.325, 194.391 159, 194.607 159 C 194.823 159, 195 158.325, 195 157.500 C 195 156.675, 194.564 156, 194.031 156 C 193.499 156, 193.322 156.675, 193.638 157.500 M 137.271 159.265 C 137.608 160.141, 138.184 162.465, 138.553 164.429 C 138.921 166.393, 139.671 168, 140.218 168 C 140.766 168, 140.909 167.213, 140.537 166.250 C 140.165 165.287, 139.608 163.253, 139.301 161.729 C 138.993 160.205, 138.273 158.669, 137.701 158.315 C 137.070 157.925, 136.901 158.299, 137.271 159.265 M 24.360 168 C 24.360 173.225, 24.529 175.363, 24.735 172.750 C 24.941 170.137, 24.941 165.863, 24.735 163.250 C 24.529 160.637, 24.360 162.775, 24.360 168 M 113.158 161 C 113.158 162.375, 113.385 162.938, 113.662 162.250 C 113.940 161.563, 113.940 160.438, 113.662 159.750 C 113.385 159.063, 113.158 159.625, 113.158 161 M 173.195 162.500 C 173.215 164.150, 173.439 164.704, 173.693 163.731 C 173.947 162.758, 173.930 161.408, 173.656 160.731 C 173.382 160.054, 173.175 160.850, 173.195 162.500 M 195.158 162 C 195.158 163.375, 195.385 163.938, 195.662 163.250 C 195.940 162.563, 195.940 161.438, 195.662 160.750 C 195.385 160.063, 195.158 160.625, 195.158 162 M 73.015 161.691 C 73.024 162.136, 73.467 163.175, 74 164 C 74.835 165.293, 74.971 165.266, 74.985 163.809 C 74.993 162.879, 74.550 161.840, 74 161.500 C 73.450 161.160, 73.007 161.246, 73.015 161.691 M 164.158 164 C 164.158 165.375, 164.385 165.938, 164.662 165.250 C 164.940 164.563, 164.940 163.438, 164.662 162.750 C 164.385 162.063, 164.158 162.625, 164.158 164 M 129.562 166 C 129.919 167.925, 130.645 169.950, 131.176 170.500 C 132.331 171.696, 131.202 166.279, 129.822 164 C 129.230 163.024, 129.140 163.723, 129.562 166 M 84.048 164.711 C 84 165.917, 87.150 180.018, 89.105 187.351 C 91.084 194.775, 90.967 190.253, 88.938 180.923 C 86.901 171.554, 84.139 162.397, 84.048 164.711 M 226.015 165.191 C 226.007 166.121, 226.450 167.160, 227 167.500 C 228.266 168.282, 228.266 166.958, 227 165 C 226.165 163.707, 226.029 163.734, 226.015 165.191 M 105.158 167 C 105.158 168.375, 105.385 168.938, 105.662 168.250 C 105.940 167.563, 105.940 166.438, 105.662 165.750 C 105.385 165.063, 105.158 165.625, 105.158 167 M 196 166.500 C 196 167.325, 196.436 168, 196.969 168 C 197.501 168, 197.678 167.325, 197.362 166.500 C 197.045 165.675, 196.609 165, 196.393 165 C 196.177 165, 196 165.675, 196 166.500 M 217 166.254 C 217 167.069, 220.981 184.181, 221.569 185.893 C 221.832 186.659, 222.265 187.068, 222.531 186.802 C 223.055 186.279, 218.380 167.047, 217.521 166.187 C 217.234 165.901, 217 165.931, 217 166.254 M 115 169.500 C 115 170.325, 115.436 171, 115.969 171 C 116.501 171, 116.678 170.325, 116.362 169.500 C 116.045 168.675, 115.609 168, 115.393 168 C 115.177 168, 115 168.675, 115 169.500 M 174.070 170.750 C 174.032 172.537, 174.450 174, 175 174 C 176.187 174, 176.187 172.263, 175 169.500 C 174.280 167.824, 174.129 168.026, 174.070 170.750 M 165.252 172.500 C 165.263 174.700, 165.468 175.482, 165.707 174.238 C 165.946 172.994, 165.937 171.194, 165.687 170.238 C 165.437 169.282, 165.241 170.300, 165.252 172.500 M 227 169.882 C 227 170.432, 227.450 171.160, 228 171.500 C 228.550 171.840, 229 171.668, 229 171.118 C 229 170.568, 228.550 169.840, 228 169.500 C 227.450 169.160, 227 169.332, 227 169.882 M 76 172 C 76 173.100, 76.408 174, 76.906 174 C 77.405 174, 77.577 173.100, 77.290 172 C 77.002 170.900, 76.594 170, 76.383 170 C 76.173 170, 76 170.900, 76 172 M 106.323 172.250 C 106.620 173.488, 107.170 176.192, 107.545 178.261 C 107.920 180.330, 108.644 182.280, 109.153 182.595 C 109.692 182.928, 109.812 181.982, 109.440 180.334 C 107.809 173.117, 106.878 170, 106.353 170 C 106.040 170, 106.026 171.012, 106.323 172.250 M 141.168 173.051 C 141.753 174.729, 142.426 175.907, 142.664 175.669 C 143.367 174.966, 141.860 170, 140.944 170 C 140.482 170, 140.583 171.373, 141.168 173.051 M 197.015 170.691 C 197.024 171.136, 197.467 172.175, 198 173 C 198.835 174.293, 198.971 174.266, 198.985 172.809 C 198.993 171.879, 198.550 170.840, 198 170.500 C 197.450 170.160, 197.007 170.246, 197.015 170.691 M 188 171.344 C 188 172.900, 191.993 189.790, 192.894 192.047 C 194.569 196.243, 194.098 192.590, 191.600 182.022 C 189.562 173.397, 188 168.764, 188 171.344 M 131 173 C 131 173.550, 131.450 174, 132 174 C 132.550 174, 133 173.550, 133 173 C 133 172.450, 132.550 172, 132 172 C 131.450 172, 131 172.450, 131 173 M 116 174.441 C 116 175.298, 116.450 176, 117 176 C 117.550 176, 118 175.577, 118 175.059 C 118 174.541, 117.550 173.840, 117 173.500 C 116.450 173.160, 116 173.584, 116 174.441 M 228.015 173.691 C 228.024 174.136, 228.467 175.175, 229 176 C 229.835 177.293, 229.971 177.266, 229.985 175.809 C 229.993 174.879, 229.550 173.840, 229 173.500 C 228.450 173.160, 228.007 173.246, 228.015 173.691 M 77.015 176.750 C 77.007 177.988, 77.450 179, 78 179 C 79.253 179, 79.253 177.939, 78 176 C 77.216 174.787, 77.028 174.931, 77.015 176.750 M 132 175.882 C 132 176.432, 132.450 177.160, 133 177.500 C 133.550 177.840, 134 177.668, 134 177.118 C 134 176.568, 133.550 175.840, 133 175.500 C 132.450 175.160, 132 175.332, 132 175.882 M 198 175.941 C 198 176.459, 198.450 177.160, 199 177.500 C 199.550 177.840, 200 177.416, 200 176.559 C 200 175.702, 199.550 175, 199 175 C 198.450 175, 198 175.423, 198 175.941 M 117.015 178.750 C 117.024 179.162, 117.467 180.175, 118 181 C 118.784 182.213, 118.972 182.069, 118.985 180.250 C 118.993 179.012, 118.550 178, 118 178 C 117.450 178, 117.007 178.338, 117.015 178.750 M 229.015 178.750 C 229.024 179.162, 229.467 180.175, 230 181 C 230.784 182.213, 230.972 182.069, 230.985 180.250 C 230.993 179.012, 230.550 178, 230 178 C 229.450 178, 229.007 178.338, 229.015 178.750 M 199.015 179.750 C 199.024 180.162, 199.467 181.175, 200 182 C 200.784 183.213, 200.972 183.069, 200.985 181.250 C 200.993 180.012, 200.550 179, 200 179 C 199.450 179, 199.007 179.338, 199.015 179.750 M 25.086 183.450 C 25.030 186.013, 25.342 187.058, 25.974 186.426 C 26.576 185.824, 26.609 184.316, 26.060 182.476 C 25.182 179.535, 25.171 179.546, 25.086 183.450 M 78 181.441 C 78 182.298, 78.450 183, 79 183 C 79.550 183, 80 182.577, 80 182.059 C 80 181.541, 79.550 180.840, 79 180.500 C 78.450 180.160, 78 180.584, 78 181.441 M 144 180.505 C 144 180.783, 145.033 183.152, 146.296 185.770 C 149.180 191.748, 152.823 196.719, 154.902 197.513 C 155.781 197.848, 155.073 196.633, 153.328 194.811 C 151.584 192.990, 149.021 188.912, 147.633 185.750 C 145.463 180.805, 144 178.693, 144 180.505 M 276.232 183 C 276.232 184.925, 276.438 185.713, 276.689 184.750 C 276.941 183.787, 276.941 182.213, 276.689 181.250 C 276.438 180.287, 276.232 181.075, 276.232 183 M 118 183.385 C 118 183.597, 118.700 185.285, 119.555 187.135 C 120.686 189.582, 120.962 189.818, 120.569 188 C 120.271 186.625, 120.021 184.938, 120.014 184.250 C 120.006 183.563, 119.550 183, 119 183 C 118.450 183, 118 183.173, 118 183.385 M 79.015 185.191 C 79.007 186.121, 79.450 187.160, 80 187.500 C 81.266 188.282, 81.266 186.958, 80 185 C 79.165 183.707, 79.029 183.734, 79.015 185.191 M 200.638 185.500 C 200.955 186.325, 201.391 187, 201.607 187 C 201.823 187, 202 186.325, 202 185.500 C 202 184.675, 201.564 184, 201.031 184 C 200.499 184, 200.322 184.675, 200.638 185.500 M 109 186 C 109 186.550, 109.450 187, 110 187 C 110.550 187, 111 186.550, 111 186 C 111 185.450, 110.550 185, 110 185 C 109.450 185, 109 185.450, 109 186 M 136 185.610 C 136 187.328, 142.531 198.135, 144.795 200.163 L 147.404 202.500 144.785 199.272 C 143.345 197.496, 140.990 193.559, 139.554 190.522 C 137.202 185.551, 136 183.890, 136 185.610 M 225 188 C 225 188.550, 225.423 189, 225.941 189 C 226.459 189, 227.160 188.550, 227.500 188 C 227.840 187.450, 227.416 187, 226.559 187 C 225.702 187, 225 187.450, 225 188 M 26.041 189 C 26 192.214, 27.303 198, 28.068 198 C 29.006 198, 28.120 191.205, 26.895 189 C 26.153 187.667, 26.059 187.667, 26.041 189 M 165.158 190 C 165.158 191.375, 165.385 191.938, 165.662 191.250 C 165.940 190.563, 165.940 189.438, 165.662 188.750 C 165.385 188.063, 165.158 188.625, 165.158 190 M 275.002 189 C 274.917 189.825, 274.678 191.175, 274.472 192 C 274.266 192.825, 273.387 196.425, 272.519 200 C 271.651 203.575, 270.681 207.344, 270.363 208.375 C 270.007 209.533, 270.183 210.005, 270.825 209.608 C 272.139 208.796, 276.395 190.595, 275.686 188.821 C 275.286 187.821, 275.120 187.865, 275.002 189 M 80 189.882 C 80 190.432, 80.450 191.160, 81 191.500 C 81.550 191.840, 82 191.668, 82 191.118 C 82 190.568, 81.550 189.840, 81 189.500 C 80.450 189.160, 80 189.332, 80 189.882 M 110.543 189.931 C 110.226 190.443, 110.425 191.144, 110.984 191.490 C 111.543 191.835, 112 191.416, 112 190.559 C 112 188.802, 111.400 188.544, 110.543 189.931 M 174.015 192.250 C 174.028 194.069, 174.216 194.213, 175 193 C 176.253 191.061, 176.253 190, 175 190 C 174.450 190, 174.007 191.012, 174.015 192.250 M 202.250 192.662 C 200.820 193.239, 200.551 195, 201.893 195 C 202.384 195, 203.045 194.325, 203.362 193.500 C 203.678 192.675, 203.839 192.036, 203.719 192.079 C 203.598 192.122, 202.938 192.385, 202.250 192.662 M 163.217 195.424 C 162.526 196.940, 161.052 198.016, 159.304 198.279 L 156.500 198.700 159.227 198.850 C 161.143 198.955, 162.447 198.247, 163.612 196.469 C 164.525 195.077, 165.058 193.725, 164.798 193.465 C 164.538 193.204, 163.826 194.086, 163.217 195.424 M 196.500 195 C 196.160 195.550, 196.584 196, 197.441 196 C 198.298 196, 199 195.550, 199 195 C 199 194.450, 198.577 194, 198.059 194 C 197.541 194, 196.840 194.450, 196.500 195 M 122 197.882 C 122 198.432, 122.450 199.160, 123 199.500 C 123.550 199.840, 124 199.668, 124 199.118 C 124 198.568, 123.550 197.840, 123 197.500 C 122.450 197.160, 122 197.332, 122 197.882 M 113.690 201.364 C 114.985 210.057, 116.596 214.493, 118.565 214.786 C 120.351 215.052, 120.365 214.990, 118.750 213.987 C 117.787 213.390, 116.973 211.910, 116.939 210.700 C 116.905 209.490, 116.031 206.025, 114.996 203 C 113.386 198.295, 113.197 198.058, 113.690 201.364 M 28.045 200.050 C 28.070 200.847, 28.739 202.850, 29.533 204.500 L 30.975 207.500 30.382 204 C 29.775 200.417, 27.961 197.351, 28.045 200.050 M 93.024 201.550 C 93.054 202.679, 94.680 209.950, 96.111 215.351 C 96.672 217.469, 97.338 218.995, 97.591 218.743 C 98.232 218.101, 94.880 202.712, 93.846 201.550 C 93.312 200.950, 93.009 200.950, 93.024 201.550 M 123 201.882 C 123 202.432, 123.450 203.160, 124 203.500 C 124.550 203.840, 125 203.668, 125 203.118 C 125 202.568, 124.550 201.840, 124 201.500 C 123.450 201.160, 123 201.332, 123 201.882 M 168.405 204.146 C 166.510 206.280, 166.512 206.285, 168.750 205.110 C 169.988 204.461, 171 203.495, 171 202.965 C 171 201.544, 170.521 201.762, 168.405 204.146 M 84 204.500 C 84 205.325, 84.436 206, 84.969 206 C 85.501 206, 85.678 205.325, 85.362 204.500 C 85.045 203.675, 84.609 203, 84.393 203 C 84.177 203, 84 203.675, 84 204.500 M 124.500 208 C 124.891 209.925, 125.622 211.936, 126.124 212.469 C 126.679 213.057, 126.782 212.076, 126.387 209.969 C 126.028 208.061, 125.298 206.050, 124.762 205.500 C 124.130 204.850, 124.038 205.725, 124.500 208 M 85.015 208.750 C 85.007 209.988, 85.450 211, 86 211 C 87.253 211, 87.253 209.939, 86 208 C 85.216 206.787, 85.028 206.931, 85.015 208.750 M 155.245 207.578 C 156.229 208.562, 160.782 208.754, 162.177 207.870 C 163.006 207.344, 161.853 207.025, 159.083 207.015 C 156.654 207.007, 154.927 207.260, 155.245 207.578 M 230.189 209.039 C 225.426 213.476, 228.822 221.169, 235.403 220.850 L 238.500 220.700 235.500 220.267 C 229.742 219.434, 227.269 214.749, 230.358 210.524 C 231.943 208.357, 237.129 208.032, 239.447 209.956 C 241.177 211.392, 241.554 216.539, 240 217.500 C 239.450 217.840, 239 218.574, 239 219.130 C 239 219.687, 239.731 219.412, 240.625 218.518 C 242.929 216.214, 242.638 212.308, 239.951 209.448 C 237.137 206.452, 233.144 206.285, 230.189 209.039 M 86 213.941 C 86 214.459, 86.450 215.160, 87 215.500 C 87.550 215.840, 88 215.416, 88 214.559 C 88 213.702, 87.550 213, 87 213 C 86.450 213, 86 213.423, 86 213.941 M 33 214.562 C 33 215.731, 38.224 226.109, 38.616 225.718 C 39.117 225.216, 34.232 214, 33.513 214 C 33.231 214, 33 214.253, 33 214.562 M 265.143 220.643 C 263.914 223.172, 263.149 225.482, 263.442 225.775 C 263.736 226.069, 264.919 224.177, 266.071 221.571 C 268.796 215.413, 268.047 214.664, 265.143 220.643 M 87.393 219.582 C 87.727 220.452, 88 221.352, 88 221.582 C 88 221.812, 89.013 221.948, 90.250 221.884 C 91.943 221.797, 92.067 221.655, 90.750 221.311 C 89.787 221.059, 89 220.211, 89 219.427 C 89 218.642, 88.502 218, 87.893 218 C 87.284 218, 87.059 218.712, 87.393 219.582 M 41.511 232 C 43.627 236.197, 49.196 244.137, 49.682 243.651 C 49.990 243.343, 41.574 230.240, 40.271 229 C 39.982 228.725, 40.540 230.075, 41.511 232 M 258.967 232.553 C 257.760 234.507, 257.017 236.350, 257.316 236.650 C 257.616 236.949, 258.801 235.350, 259.951 233.097 C 262.521 228.059, 261.942 227.739, 258.967 232.553 M 253.009 241.757 C 251.639 243.816, 250.289 245.725, 250.009 246 C 249.729 246.275, 248.600 247.625, 247.500 249 L 245.500 251.500 247.800 249.550 C 250.569 247.202, 257.306 237.997, 256.248 238.007 C 255.837 238.011, 254.379 239.698, 253.009 241.757 M 50 245.313 C 50 245.485, 51.418 246.948, 53.151 248.563 L 56.303 251.500 53.963 248.250 C 52.013 245.541, 50 244.049, 50 245.313 M 61 257.500 C 66.157 262.722, 67 263.447, 67 262.663 C 67 261.997, 56.926 252, 56.255 252 C 55.877 252, 58.013 254.475, 61 257.500 M 240.453 257.250 L 236.500 261.500 240.750 257.547 C 243.088 255.373, 245 253.460, 245 253.297 C 245 252.540, 244.129 253.298, 240.453 257.250 M 230.740 265.540 C 229.233 266.938, 228 268.372, 228 268.728 C 228 269.083, 229.350 268.081, 231 266.500 C 233.757 263.859, 234.429 263, 233.740 263 C 233.597 263, 232.247 264.143, 230.740 265.540 M 70.924 266.356 C 73.546 269.215, 74 269.475, 74 268.115 C 74 267.628, 72.763 266.438, 71.250 265.471 L 68.500 263.712 70.924 266.356 M 77.500 271.469 C 79.150 272.821, 80.950 273.942, 81.500 273.959 C 82.050 273.976, 81.150 272.883, 79.500 271.531 C 77.850 270.179, 76.050 269.058, 75.500 269.041 C 74.950 269.024, 75.850 270.117, 77.500 271.469 M 220.500 273 C 220.160 273.550, 220.332 274, 220.882 274 C 221.432 274, 222.160 273.550, 222.500 273 C 222.840 272.450, 222.668 272, 222.118 272 C 221.568 272, 220.840 272.450, 220.500 273 M 83 274.861 C 83 275.311, 84.125 276.192, 85.500 276.818 C 86.875 277.445, 88 277.589, 88 277.139 C 88 276.689, 86.875 275.808, 85.500 275.182 C 84.125 274.555, 83 274.411, 83 274.861 M 215.861 276.016 L 213.500 278.032 216.250 276.856 C 217.762 276.208, 219 275.301, 219 274.839 C 219 273.592, 218.465 273.792, 215.861 276.016 M 91 279.561 C 91 279.774, 92.350 280.647, 94 281.500 C 95.650 282.353, 97 282.688, 97 282.245 C 97 281.801, 95.650 280.929, 94 280.306 C 92.350 279.683, 91 279.348, 91 279.561 M 206.441 281.468 C 205.374 282.276, 205.007 282.951, 205.628 282.968 C 206.248 282.986, 207.315 282.325, 208 281.500 C 209.581 279.595, 208.935 279.582, 206.441 281.468 M 103 284.982 C 103 286.068, 109.922 288.411, 110.734 287.600 C 111.063 287.270, 110.696 286.997, 109.917 286.994 C 109.138 286.990, 107.263 286.342, 105.750 285.553 C 104.237 284.764, 103 284.507, 103 284.982 M 197.548 284.923 C 197.234 285.431, 195.600 286.149, 193.917 286.518 C 192.234 286.888, 191.084 287.417, 191.361 287.695 C 192.132 288.465, 199 285.973, 199 284.922 C 199 283.739, 198.279 283.739, 197.548 284.923 M 120.500 291 C 120.840 291.550, 121.568 292, 122.118 292 C 122.668 292, 122.840 291.550, 122.500 291 C 122.160 290.450, 121.432 290, 120.882 290 C 120.332 290, 120.160 290.450, 120.500 291 M 179.500 291 C 179.160 291.550, 179.332 292, 179.882 292 C 180.432 292, 181.160 291.550, 181.500 291 C 181.840 290.450, 181.668 290, 181.118 290 C 180.568 290, 179.840 290.450, 179.500 291 M 125 292 C 125 292.550, 126.013 292.993, 127.250 292.985 C 129.069 292.972, 129.213 292.784, 128 292 C 126.061 290.747, 125 290.747, 125 292 M 174 292 C 172.787 292.784, 172.931 292.972, 174.750 292.985 C 175.988 292.993, 177 292.550, 177 292 C 177 290.747, 175.939 290.747, 174 292 M 131.442 293.094 C 131.134 293.592, 132.034 294, 133.441 294 C 136.505 294, 136.753 293.430, 134.001 292.711 C 132.902 292.423, 131.750 292.596, 131.442 293.094 M 167 293 L 164.500 293.801 167.250 293.900 C 168.762 293.955, 170 293.550, 170 293 C 170 292.450, 169.887 292.045, 169.750 292.100 C 169.613 292.155, 168.375 292.560, 167 293 M 145.789 294.741 C 149.248 294.937, 154.648 294.936, 157.789 294.738 C 160.930 294.540, 158.100 294.380, 151.500 294.382 C 144.900 294.384, 142.330 294.546, 145.789 294.741" stroke="none" fill="#9e3e37" fill-rule="evenodd"/><path d="M 150.493 9.007 C 149.361 10.259, 148.728 12.383, 148.813 14.649 C 148.979 19.057, 148.873 18.943, 153.464 19.688 C 156.603 20.197, 157.547 19.889, 159.588 17.689 C 162.568 14.474, 162.618 12.726, 159.820 9.508 C 157.161 6.450, 153.009 6.228, 150.493 9.007 M 140 41.802 C 140 42.380, 141.775 46.374, 143.945 50.677 C 146.114 54.979, 148.831 62.100, 149.981 66.500 C 151.131 70.900, 152.497 75.267, 153.016 76.204 C 154.044 78.062, 152.724 79.566, 151 78.500 C 150.450 78.160, 150 78.411, 150 79.058 C 150 79.741, 149.163 80.014, 148.001 79.711 C 146.902 79.423, 145.745 79.603, 145.432 80.110 C 144.437 81.720, 143.249 80.145, 142.531 76.261 C 142.148 74.192, 141.251 71.150, 140.539 69.500 C 139.827 67.850, 138.451 64.250, 137.482 61.500 C 135.019 54.506, 129.983 46.540, 127.193 45.223 C 124.006 43.719, 120.144 45.538, 119.338 48.921 C 119 50.340, 118.395 51.950, 117.994 52.500 C 117.345 53.388, 117.428 58.442, 118.309 71.505 C 118.457 73.707, 118.941 76.095, 119.383 76.811 C 119.826 77.528, 119.912 79.213, 119.575 80.557 C 119.238 81.901, 119.346 83, 119.816 83 C 120.285 83, 121.201 86.037, 121.851 89.750 C 123.228 97.623, 123.522 98.977, 124.295 101 C 125.070 103.030, 127.025 112.858, 126.835 113.769 C 126.751 114.171, 126.944 115.175, 127.263 116 C 127.583 116.825, 128.364 119.975, 129 123 C 129.636 126.025, 130.415 129.175, 130.731 130 C 131.048 130.825, 131.376 131.950, 131.460 132.500 C 131.545 133.050, 131.886 134.175, 132.218 135 C 133.645 138.545, 134.944 145.981, 134.389 147.428 C 134.043 148.330, 134.308 149, 135.010 149 C 135.741 149, 136.023 149.805, 135.710 151 C 135.423 152.100, 135.595 153, 136.094 153 C 136.592 153, 137 154.050, 137 155.333 C 137 156.617, 137.330 157.997, 137.733 158.400 C 138.984 159.650, 140.882 167.143, 140.320 168.609 C 140.026 169.374, 140.248 170, 140.814 170 C 141.379 170, 142.156 171.463, 142.541 173.250 C 143.706 178.653, 150.038 191.290, 153.315 194.750 C 157.388 199.051, 161.345 199.168, 163.474 195.050 C 164.313 193.427, 165 191.177, 165 190.050 C 165 188.922, 165.450 188, 166 188 C 166.556 188, 167 185.333, 167 182 C 167 178.667, 166.556 176, 166 176 C 165.450 176, 164.980 174.088, 164.956 171.750 C 164.932 169.412, 164.445 165.475, 163.873 163 C 163.301 160.525, 162.758 157.488, 162.666 156.250 C 162.575 155.012, 162.131 154, 161.680 154 C 161.230 154, 161.005 152.988, 161.181 151.750 C 161.401 150.202, 162.120 149.556, 163.486 149.678 C 164.578 149.776, 165.786 149.347, 166.170 148.724 C 166.678 147.902, 167.593 147.979, 169.511 149.006 C 171.457 150.047, 172.039 151.014, 171.722 152.675 C 171.485 153.915, 171.640 155.058, 172.067 155.215 C 174.350 156.053, 176.264 187.518, 174.457 194.500 C 172.696 201.301, 170.012 204.830, 165.202 206.667 C 162.642 207.645, 159.862 208.414, 159.024 208.376 C 156.143 208.248, 152 206.782, 152 205.892 C 152 205.401, 151.646 205.112, 151.214 205.250 C 150.781 205.387, 148.371 203.475, 145.857 201 C 141.221 196.436, 137.306 189.761, 135.006 182.500 C 134.309 180.300, 133.309 177.957, 132.784 177.294 C 132.258 176.630, 132.118 175.618, 132.473 175.044 C 132.828 174.470, 132.593 174, 131.952 174 C 131.311 174, 131.024 173.380, 131.315 172.622 C 131.606 171.864, 131.445 170.845, 130.958 170.358 C 130.470 169.870, 129.943 167.903, 129.786 165.986 C 129.629 164.069, 129.237 162.275, 128.915 162 C 128.593 161.725, 127.837 159.700, 127.235 157.500 C 126.633 155.300, 125.406 150.860, 124.508 147.632 C 123.611 144.405, 123.115 141.143, 123.407 140.382 C 123.699 139.622, 123.449 139, 122.852 139 C 122.234 139, 121.972 137.924, 122.245 136.500 C 122.508 135.125, 122.394 134, 121.991 134 C 121.589 134, 120.717 131.238, 120.053 127.863 C 119.389 124.487, 118.436 120.999, 117.936 120.113 C 116.778 118.060, 110.816 88.297, 110.922 85.104 C 110.966 83.786, 110.501 82.104, 109.889 81.367 C 109.277 80.629, 109.054 78.923, 109.392 77.574 C 109.742 76.180, 109.521 74.822, 108.880 74.426 C 108.162 73.982, 107.959 71.994, 108.320 68.945 C 108.640 66.246, 108.377 62.809, 107.716 61.059 C 106.801 58.634, 106.823 57.512, 107.820 55.916 C 108.521 54.793, 108.832 53.045, 108.509 52.030 C 107.900 50.111, 105 48.394, 105 49.952 C 105 50.441, 103.650 51.138, 102 51.500 C 100.350 51.862, 99 52.600, 99 53.138 C 99 53.677, 98.550 53.840, 98 53.500 C 97.450 53.160, 97 53.385, 97 54 C 97 54.615, 96.550 54.840, 96 54.500 C 95.450 54.160, 95 54.407, 95 55.048 C 95 55.689, 94.325 55.955, 93.500 55.638 C 92.675 55.322, 92 55.525, 92 56.090 C 92 56.656, 91.550 56.840, 91 56.500 C 89.885 55.811, 89.704 56.608, 89.583 62.748 C 89.538 65.085, 89.779 66.997, 90.120 66.998 C 90.461 66.999, 91.291 69.813, 91.964 73.250 C 92.637 76.688, 93.547 79.950, 93.986 80.500 C 95.199 82.021, 97.222 92.832, 96.509 93.986 C 96.164 94.544, 96.300 95, 96.811 95 C 97.322 95, 98.291 97.813, 98.964 101.250 C 99.637 104.688, 100.646 108.057, 101.206 108.737 C 101.766 109.418, 101.968 110.641, 101.656 111.455 C 101.343 112.270, 101.557 113.226, 102.131 113.581 C 102.705 113.936, 102.958 115.053, 102.693 116.065 C 102.429 117.076, 102.670 118.057, 103.229 118.243 C 103.788 118.429, 104.295 120.476, 104.356 122.791 C 104.416 125.106, 104.864 127, 105.350 127 C 105.836 127, 105.998 127.900, 105.710 129 C 105.423 130.100, 105.544 131, 105.980 131 C 106.416 131, 107.061 132.463, 107.412 134.250 C 108.433 139.437, 108.679 140.399, 109.450 142.202 C 109.850 143.138, 109.886 144.376, 109.530 144.952 C 109.173 145.528, 109.411 146, 110.058 146 C 110.741 146, 111.014 146.838, 110.710 148 C 110.423 149.100, 110.648 150, 111.210 150 C 111.773 150, 112.021 151.109, 111.762 152.465 C 111.503 153.821, 111.610 155.058, 111.999 155.215 C 112.685 155.491, 115.984 167.955, 116.177 171 C 116.230 171.825, 116.669 173.005, 117.154 173.623 C 117.638 174.241, 117.754 175.479, 117.410 176.373 C 117.043 177.329, 117.290 178, 118.010 178 C 118.776 178, 119.054 178.935, 118.755 180.500 C 118.492 181.875, 118.717 183, 119.255 183 C 119.793 183, 120.021 184.111, 119.761 185.470 C 119.501 186.828, 119.624 187.733, 120.032 187.480 C 120.441 187.227, 121.093 189.153, 121.482 191.760 C 121.870 194.367, 122.659 197.073, 123.236 197.774 C 123.813 198.475, 124 199.334, 123.651 199.682 C 123.303 200.031, 123.528 200.931, 124.151 201.682 C 124.775 202.434, 125 203.334, 124.651 203.682 C 124.303 204.031, 124.400 204.807, 124.868 205.408 C 125.894 206.725, 127.304 213.637, 126.352 212.686 C 125.985 212.318, 125.162 212.451, 124.524 212.980 C 123.886 213.510, 121.826 214.068, 119.946 214.222 L 116.527 214.500 113.871 203 C 112.410 196.675, 111.115 191.275, 110.992 191 C 110.870 190.725, 110.850 189.713, 110.948 188.750 C 111.046 187.788, 110.599 187, 109.956 187 C 109.286 187, 109.053 186.304, 109.410 185.373 C 109.754 184.479, 109.635 183.241, 109.146 182.623 C 108.657 182.005, 107.495 177.900, 106.564 173.500 C 105.632 169.100, 104.232 163.475, 103.452 161 C 102.672 158.525, 100.737 150.747, 99.150 143.717 C 96.234 130.790, 95.456 128.726, 94.196 130.583 C 93.609 131.447, 87.694 133.277, 82 134.357 C 78.883 134.948, 77.141 136.214, 77.563 137.583 C 77.803 138.362, 78.298 139.787, 78.662 140.750 C 79.615 143.271, 85.514 167.019, 89.529 184.500 C 91.424 192.750, 93.404 200.400, 93.928 201.500 C 94.452 202.600, 95.593 206.784, 96.463 210.798 C 97.877 217.319, 97.884 218.258, 96.531 219.612 C 95.697 220.446, 94.593 220.866, 94.077 220.547 C 93.561 220.228, 92.856 220.425, 92.510 220.984 C 90.711 223.895, 86.340 220.884, 87.600 217.601 C 87.895 216.832, 87.637 215.894, 87.027 215.517 C 86.418 215.140, 86.192 213.970, 86.527 212.916 C 86.892 211.764, 86.662 211, 85.951 211 C 85.227 211, 84.953 210.028, 85.245 208.500 C 85.508 207.125, 85.386 206, 84.975 206 C 84.563 206, 83.666 202.962, 82.981 199.250 C 82.297 195.537, 81.282 191.927, 80.726 191.226 C 80.170 190.525, 80 189.666, 80.349 189.318 C 80.697 188.969, 80.486 188.086, 79.879 187.355 C 79.273 186.624, 79.037 185.345, 79.357 184.513 C 79.676 183.681, 79.449 183, 78.852 183 C 78.255 183, 78.002 182.100, 78.290 181 C 78.577 179.900, 78.352 179, 77.790 179 C 77.227 179, 76.982 177.875, 77.245 176.500 C 77.508 175.125, 77.424 174, 77.059 174 C 76.504 174, 75.328 169.917, 73.604 162 C 73.425 161.175, 72.950 159.734, 72.550 158.798 C 72.150 157.862, 72.114 156.624, 72.470 156.048 C 72.827 155.472, 72.589 155, 71.942 155 C 71.259 155, 70.986 154.163, 71.289 153.001 C 71.577 151.902, 71.365 150.726, 70.819 150.388 C 70.273 150.051, 70.042 148.947, 70.307 147.935 C 70.571 146.924, 70.451 145.962, 70.040 145.798 C 69.396 145.541, 66.657 135.639, 65.533 129.500 C 65.332 128.400, 65.072 127.500, 64.956 127.500 C 64.739 127.500, 64.228 125.048, 63.703 121.482 C 63.539 120.373, 63.060 118.906, 62.638 118.223 C 62.216 117.541, 62.155 116.086, 62.503 114.991 C 62.850 113.896, 62.682 113, 62.129 113 C 61.575 113, 60.818 110.969, 60.446 108.488 C 60.074 106.006, 59.364 103.725, 58.868 103.419 C 58.373 103.112, 58.238 102.423, 58.570 101.887 C 58.901 101.351, 58.732 100.370, 58.194 99.706 C 57.657 99.043, 56.666 95.815, 55.993 92.534 L 54.768 86.568 52.359 89.534 C 48.896 93.798, 48.913 93.774, 43.820 102 C 41.267 106.125, 38.381 111.525, 37.408 114 C 36.434 116.475, 35.336 118.725, 34.967 119 C 34.599 119.275, 33.295 122.650, 32.070 126.500 C 30.846 130.350, 29.582 134.175, 29.263 135 C 28.944 135.825, 28.755 136.841, 28.844 137.258 C 28.932 137.674, 28.503 140.149, 27.889 142.758 C 25.780 151.715, 25.513 154.530, 25.543 167.500 C 25.571 180.028, 26.122 186.835, 27.365 190 C 27.688 190.825, 28.129 193.075, 28.343 195 C 28.557 196.925, 28.996 199.175, 29.317 200 C 29.638 200.825, 30.419 203.525, 31.052 206 C 31.684 208.475, 33.731 213.772, 35.601 217.772 C 37.470 221.771, 39 225.403, 39 225.842 C 39 226.281, 41.475 230.402, 44.500 235 C 47.525 239.598, 50 243.476, 50 243.618 C 50 243.760, 51.329 245.331, 52.953 247.110 C 54.577 248.888, 55.676 250.716, 55.394 251.171 C 55.112 251.627, 55.324 252, 55.865 252 C 56.405 252, 59.734 254.813, 63.261 258.250 C 70.475 265.279, 74.836 269, 75.862 269 C 76.243 269, 77.909 270.238, 79.565 271.750 C 81.221 273.262, 83.009 274.618, 83.538 274.762 C 86.852 275.664, 88 276.232, 88 276.968 C 88 277.427, 90.023 278.634, 92.496 279.651 C 94.969 280.668, 96.994 281.864, 96.996 282.309 C 96.998 282.754, 97.450 282.840, 98 282.500 C 98.550 282.160, 99 282.359, 99 282.941 C 99 283.523, 99.338 283.947, 99.750 283.882 C 100.162 283.816, 100.838 283.873, 101.250 284.007 C 101.662 284.140, 102.338 284.344, 102.750 284.459 C 103.162 284.574, 104.767 285.192, 106.315 285.834 C 107.863 286.475, 109.551 287, 110.065 287 C 110.579 287, 111 287.436, 111 287.969 C 111 288.501, 111.675 288.678, 112.500 288.362 C 113.325 288.045, 114 288.314, 114 288.960 C 114 289.680, 114.775 289.889, 116 289.500 C 117.225 289.111, 118 289.320, 118 290.040 C 118 290.702, 118.693 290.948, 119.590 290.604 C 120.465 290.268, 121.702 290.329, 122.340 290.740 C 122.978 291.151, 124.400 291.592, 125.500 291.721 C 126.600 291.849, 129.300 292.284, 131.500 292.687 C 136.771 293.653, 164.265 293.667, 170 292.707 C 172.475 292.293, 175.400 291.849, 176.500 291.720 C 177.600 291.592, 179.022 291.151, 179.660 290.740 C 180.298 290.329, 181.535 290.268, 182.410 290.604 C 183.307 290.948, 184 290.702, 184 290.040 C 184 289.320, 184.775 289.111, 186 289.500 C 187.225 289.889, 188 289.680, 188 288.960 C 188 288.314, 188.675 288.045, 189.500 288.362 C 190.325 288.678, 191 288.501, 191 287.969 C 191 287.436, 191.421 287, 191.935 287 C 192.449 287, 194.137 286.475, 195.685 285.834 C 197.233 285.192, 198.838 284.574, 199.250 284.459 C 199.662 284.344, 200.338 284.140, 200.750 284.007 C 201.162 283.873, 201.838 283.816, 202.250 283.882 C 202.662 283.947, 203 283.550, 203 283 C 203 282.450, 203.338 282.096, 203.750 282.212 C 204.162 282.329, 205.512 281.863, 206.750 281.177 C 207.988 280.491, 209.007 280.283, 209.015 280.715 C 209.024 281.147, 209.361 281.050, 209.765 280.500 C 211.036 278.770, 217.311 274.667, 218.685 274.667 C 219.408 274.667, 220 274.281, 220 273.809 C 220 273.337, 221.125 272.523, 222.500 272 C 223.875 271.477, 225 270.588, 225 270.025 C 225 269.461, 225.563 268.987, 226.250 268.972 C 226.938 268.957, 228.813 267.607, 230.417 265.972 C 232.021 264.337, 233.699 263, 234.146 263 C 235.023 263, 245.990 251.960, 246.016 251.050 C 246.025 250.748, 247.375 248.977, 249.016 247.114 C 250.657 245.252, 252 243.448, 252 243.104 C 252 242.761, 253.012 241.333, 254.250 239.933 C 259.523 233.963, 268.689 214.539, 271.677 203 C 275.040 190.013, 274.986 190.258, 276.031 183.500 C 277.645 173.074, 277.016 156.020, 274.557 143.500 C 272.956 135.344, 268.392 121.816, 264.421 113.454 C 261.822 107.979, 259.392 103.275, 259.023 103 C 258.654 102.725, 257.186 100.523, 255.761 98.106 C 251.008 90.043, 237.508 74, 235.476 74 C 234.778 74, 232.818 72.418, 231.121 70.485 C 229.423 68.552, 227.811 66.961, 227.537 66.950 C 226.399 66.904, 221.012 63.441, 221.006 62.750 C 221.003 62.337, 220.325 62, 219.500 62 C 218.675 62, 218 61.550, 218 61 C 218 60.450, 217.410 60, 216.689 60 C 215.967 60, 214.440 59.127, 213.295 58.060 C 212.150 56.993, 210.940 56.393, 210.606 56.727 C 210.273 57.060, 210 56.822, 210 56.198 C 210 55.574, 209.383 55.300, 208.629 55.589 C 207.875 55.878, 206.525 55.382, 205.629 54.486 C 204.733 53.590, 203.993 53.227, 203.985 53.679 C 203.976 54.130, 203.639 53.998, 203.235 53.385 C 202.229 51.858, 198 50.618, 198 51.849 C 198 52.391, 198.356 52.983, 198.792 53.167 C 199.557 53.489, 201.639 61.511, 208.352 90 C 210.102 97.425, 211.818 103.950, 212.166 104.500 C 212.513 105.050, 214.204 112.025, 215.922 120 C 217.640 127.975, 219.539 135.470, 220.141 136.655 C 220.743 137.840, 220.931 139.302, 220.559 139.905 C 220.187 140.507, 220.266 141, 220.735 141 C 221.854 141, 224.073 151.646, 223.348 153.536 C 223.039 154.341, 223.337 155, 224.010 155 C 224.741 155, 225.023 155.805, 224.710 157 C 224.423 158.100, 224.544 159, 224.980 159 C 225.671 159, 226.232 160.918, 227.323 167.018 C 227.472 167.852, 227.956 169.120, 228.397 169.834 C 228.839 170.549, 228.934 171.399, 228.609 171.725 C 228.284 172.050, 228.514 172.914, 229.121 173.645 C 229.727 174.376, 229.963 175.655, 229.643 176.487 C 229.324 177.319, 229.551 178, 230.148 178 C 230.766 178, 231.028 179.076, 230.755 180.500 C 230.492 181.875, 230.696 183, 231.208 183 C 231.720 183, 231.985 184.012, 231.796 185.250 C 231.607 186.488, 230.853 187.372, 230.121 187.215 C 229.389 187.058, 228.162 187.451, 227.395 188.087 C 226.326 188.974, 225.480 188.899, 223.770 187.763 C 221.999 186.587, 220.879 183.526, 218.330 172.891 C 216.564 165.526, 214.185 155.900, 213.042 151.500 C 211.900 147.100, 211.156 142.712, 211.389 141.749 C 211.623 140.785, 211.480 140.204, 211.072 140.456 C 210.664 140.708, 209.776 137.906, 209.098 134.229 C 208.421 130.552, 207.496 127.084, 207.044 126.522 C 206.591 125.960, 204.991 119.650, 203.488 112.500 C 201.985 105.350, 200.310 98.943, 199.766 98.263 C 199.221 97.582, 199.037 96.345, 199.357 95.513 C 199.676 94.681, 199.552 94, 199.082 94 C 198.321 94, 196.664 86.961, 196.491 82.999 C 196.455 82.173, 196.084 80.945, 195.667 80.270 C 195.250 79.595, 194.775 77.562, 194.613 75.752 C 194.451 73.943, 193.857 71.571, 193.294 70.481 C 192.731 69.391, 192.472 67.938, 192.718 67.250 C 192.965 66.563, 192.627 66, 191.967 66 C 191.259 66, 190.981 65.180, 191.289 64.001 C 191.577 62.902, 191.365 61.726, 190.819 61.388 C 190.273 61.051, 190.048 59.925, 190.319 58.887 C 190.591 57.849, 190.352 57, 189.790 57 C 189.227 57, 188.982 55.875, 189.245 54.500 C 189.508 53.125, 189.335 52, 188.861 52 C 188.388 52, 188 51.293, 188 50.429 C 188 49.564, 187.325 48.182, 186.500 47.357 C 185.675 46.532, 185 46.169, 185 46.551 C 185 46.933, 184.438 46.801, 183.750 46.259 C 183.063 45.716, 181.825 45.230, 181 45.177 C 180.175 45.125, 177.475 44.633, 175 44.085 C 172.525 43.536, 169.479 43.068, 168.231 43.044 C 166.257 43.006, 166.047 43.358, 166.619 45.750 C 166.980 47.263, 167.714 49.057, 168.250 49.737 C 168.785 50.418, 168.963 51.655, 168.643 52.487 C 168.324 53.319, 168.398 54, 168.808 54 C 169.218 54, 170.620 59.063, 171.925 65.250 C 173.229 71.438, 174.621 76.950, 175.019 77.500 C 176.235 79.182, 179.173 93.912, 178.507 94.989 C 178.163 95.545, 178.300 96, 178.811 96 C 179.322 96, 180.291 98.813, 180.964 102.250 C 181.637 105.688, 182.653 109.066, 183.222 109.757 C 183.791 110.449, 184.304 112.811, 184.361 115.007 C 184.419 117.203, 184.864 119, 185.350 119 C 185.836 119, 186.021 120.109, 185.762 121.465 C 185.503 122.821, 185.610 124.058, 185.999 124.215 C 186.577 124.447, 188.943 132.913, 190.411 140 C 190.582 140.825, 191.050 142.266, 191.450 143.202 C 191.850 144.138, 191.910 145.337, 191.582 145.867 C 191.255 146.396, 191.479 146.993, 192.080 147.193 C 192.681 147.394, 193.246 149.455, 193.336 151.773 C 193.426 154.092, 193.890 155.991, 194.367 155.994 C 194.843 155.997, 194.998 156.900, 194.710 158 C 194.423 159.100, 194.544 160, 194.980 160 C 195.701 160, 196.853 164.244, 197.153 168 C 197.219 168.825, 197.712 170.057, 198.248 170.737 C 198.785 171.418, 198.963 172.655, 198.643 173.487 C 198.324 174.319, 198.551 175, 199.148 175 C 199.745 175, 199.998 175.900, 199.710 177 C 199.423 178.100, 199.648 179, 200.210 179 C 200.773 179, 201.018 180.125, 200.755 181.500 C 200.492 182.875, 200.717 184, 201.255 184 C 201.793 184, 202.021 185.111, 201.761 186.470 C 201.472 187.983, 201.681 188.697, 202.302 188.313 C 202.923 187.930, 203.097 188.522, 202.751 189.844 C 202.441 191.030, 202.581 192, 203.062 192 C 203.543 192, 203.673 192.688, 203.350 193.530 C 202.980 194.495, 202.069 194.839, 200.882 194.462 C 199.847 194.134, 199 194.341, 199 194.921 C 199 195.502, 197.878 195.885, 196.506 195.771 C 194.671 195.619, 193.733 194.720, 192.958 192.372 C 191.785 188.819, 186.534 167.396, 181.958 147.500 C 180.314 140.350, 178.529 133.600, 177.993 132.500 C 177.456 131.400, 175.642 123.975, 173.962 116 C 172.281 108.025, 170.481 100.600, 169.961 99.500 C 168.430 96.260, 165.884 83.996, 166.527 82.956 C 166.852 82.430, 166.693 82, 166.173 82 C 165.653 82, 164.909 79.862, 164.520 77.250 C 164.131 74.638, 163.341 71.927, 162.764 71.226 C 162.187 70.525, 162 69.666, 162.349 69.318 C 162.697 68.969, 162.486 68.086, 161.879 67.355 C 161.273 66.624, 161.037 65.345, 161.357 64.513 C 161.676 63.681, 161.449 63, 160.852 63 C 160.234 63, 159.972 61.924, 160.245 60.500 C 160.508 59.125, 160.412 58, 160.032 58 C 159.652 58, 158.567 54.400, 157.621 50 L 155.902 42 151.076 42 C 148.422 42, 144.844 41.719, 143.125 41.375 C 141.210 40.992, 140 41.157, 140 41.802 M 77.238 64.990 C 76.548 66.096, 75.508 67, 74.927 67 C 74.346 67, 72.734 68.351, 71.344 70.003 C 69.955 71.654, 68.480 72.797, 68.068 72.542 C 67.092 71.939, 63 77.477, 63 79.400 C 63 80.215, 63.457 81.165, 64.016 81.510 C 64.575 81.856, 64.762 82.577, 64.430 83.113 C 64.099 83.649, 64.244 84.630, 64.754 85.294 C 65.263 85.957, 66.724 91.450, 68 97.500 C 69.276 103.550, 70.706 109.005, 71.178 109.623 C 71.649 110.241, 71.754 111.479, 71.410 112.373 C 71.045 113.325, 71.290 114, 72 114 C 72.710 114, 72.955 114.675, 72.590 115.627 C 72.246 116.521, 72.462 117.852, 73.069 118.583 C 73.676 119.314, 73.948 120.275, 73.675 120.717 C 73.401 121.160, 73.702 122.239, 74.343 123.116 C 75.672 124.934, 80 126.578, 80 125.265 C 80 124.786, 82.138 123.926, 84.750 123.354 C 87.362 122.781, 90.175 122.130, 91 121.906 C 92.614 121.469, 94.075 117.824, 92.966 117 C 92.383 116.567, 89.365 105.359, 88.652 100.982 C 88.516 100.148, 88.138 99.023, 87.810 98.482 C 87.483 97.942, 86.020 91.875, 84.559 85 C 83.098 78.125, 81.507 71.600, 81.024 70.500 C 80.541 69.400, 79.774 67.258, 79.320 65.740 C 78.522 63.077, 78.449 63.051, 77.238 64.990 M 230.189 209.039 C 227.309 211.722, 227.292 216.651, 230.153 219.133 C 232.525 221.190, 238 221.679, 238 219.833 C 238 219.192, 238.279 218.945, 238.619 219.286 C 239.717 220.383, 242.250 216.971, 242.250 214.394 C 242.250 211.035, 238.301 207, 235.014 207 C 233.564 207, 231.392 207.918, 230.189 209.039" stroke="none" fill="#9b140c" fill-rule="evenodd"/></svg>