<svg version="1.1" id="Layer_1" xmlns="http://www.w3.org/2000/svg" xmlns:xlink="http://www.w3.org/1999/xlink" x="0px" y="0px"
	 width="100%" viewBox="0 0 400 400" enable-background="new 0 0 400 400" xml:space="preserve">
<path fill="#FEFEFE" opacity="1.000000" stroke="none" 
	d="
M191.000000,401.000000 
	C127.353073,401.000000 64.206139,401.000000 1.029604,401.000000 
	C1.029604,267.728058 1.029604,134.456131 1.029604,1.092094 
	C134.230225,1.092094 267.460510,1.092094 400.845398,1.092094 
	C400.845398,134.333191 400.845398,267.666565 400.845398,401.000000 
	C331.122864,401.000000 261.311432,401.000000 191.000000,401.000000 
M134.191315,111.878525 
	C134.020035,112.213852 133.848755,112.549179 133.120453,113.224037 
	C124.220505,125.353363 115.343109,137.499390 106.394691,149.592850 
	C105.146873,151.279236 103.549728,152.707138 101.224663,154.254730 
	C83.979271,156.466064 66.707443,158.493195 49.498962,160.961838 
	C40.052410,162.316986 30.712622,164.416367 20.578951,166.176743 
	C18.980686,167.279724 17.382423,168.382721 15.784166,169.485718 
	C16.958773,170.979843 18.133379,172.473953 19.749191,174.442749 
	C23.660904,176.258575 27.693163,177.855392 31.462473,179.929962 
	C44.511581,187.111984 57.469204,194.460236 69.944649,202.283386 
	C54.907829,225.387650 39.843067,248.473831 24.865633,271.616516 
	C22.722122,274.928619 21.000875,278.514008 18.928308,282.525482 
	C16.502651,286.123688 13.929905,289.636230 11.750196,293.377716 
	C11.173543,294.367554 11.807709,296.062775 11.885890,297.434113 
	C13.141237,297.005463 14.758457,296.931854 15.588414,296.085907 
	C18.929771,292.680054 22.027842,289.035492 25.837934,285.182343 
	C33.337326,277.863892 40.383900,269.998199 48.429882,263.340271 
	C65.451302,249.255325 82.994583,235.801056 100.989815,222.346176 
	C102.544685,223.374847 104.099564,224.403503 105.849266,225.035141 
	C105.849266,225.035141 105.621719,225.414383 105.900566,225.938904 
	C106.560608,226.350937 107.220657,226.762955 107.932991,227.061966 
	C107.932991,227.061966 107.827858,227.128677 108.066101,227.707184 
	C108.916214,228.289856 109.766327,228.872513 110.795860,229.258743 
	C110.795860,229.258743 110.569443,229.398422 110.877769,229.976929 
	C112.765526,231.472900 114.653282,232.968872 116.948555,234.087769 
	C116.819672,234.220596 116.690796,234.353439 116.862701,234.996078 
	C117.511497,235.427002 118.160294,235.857925 118.857841,236.166016 
	C118.857841,236.166016 118.741898,236.229431 118.997864,236.838852 
	C120.874176,238.372314 122.750481,239.905792 124.809898,241.203293 
	C124.809898,241.203293 124.578918,241.392670 124.841980,241.978363 
	C126.137169,243.085495 127.432358,244.192612 128.820221,245.181076 
	C128.820221,245.181076 128.677261,245.228302 128.904892,245.825531 
	C129.871353,246.630646 130.837799,247.435760 131.920517,248.088867 
	C131.920517,248.088867 131.762619,248.196991 131.995468,248.823822 
	C139.009583,256.377808 145.962494,263.990631 153.106094,271.420105 
	C154.136292,272.491547 156.083496,272.681274 157.606354,273.279022 
	C157.337173,271.780884 157.557327,269.887177 156.718491,268.849579 
	C151.715729,262.661377 146.468491,256.670807 141.217987,250.781586 
	C141.217987,250.781586 141.367691,250.667618 141.227753,250.171600 
	C140.958328,249.974213 140.688904,249.776810 140.064194,249.647003 
	C140.064194,249.647003 140.409012,249.537888 140.130203,248.954041 
	C138.458542,247.249207 136.786880,245.544373 135.054291,243.947906 
	C135.054291,243.947906 135.161957,243.885742 134.979462,243.269485 
	C134.032806,242.429886 133.086166,241.590271 132.120605,240.882050 
	C132.120605,240.882050 132.249054,240.848587 132.006226,240.223984 
	C130.072418,238.401154 128.138611,236.578308 126.159019,234.861038 
	C126.159019,234.861038 126.269012,234.827194 126.029106,234.195145 
	C121.745773,230.302582 117.462433,226.410019 113.048141,222.155838 
	C113.048141,222.155838 112.692032,222.010590 112.400475,221.438049 
	C110.952156,220.009842 109.503830,218.581650 108.794800,216.861542 
	C119.732712,210.605560 130.670609,204.349564 141.679565,199.027786 
	C142.701889,212.249634 143.567062,225.487289 144.894882,238.678375 
	C145.127258,240.986923 147.303726,243.099777 148.582321,245.303009 
	C149.273163,242.818832 150.622269,240.314438 150.546646,237.853821 
	C150.098557,223.273712 149.320129,208.703751 149.385056,193.912811 
	C154.788910,191.350540 160.076233,188.497086 165.617828,186.278931 
	C184.560318,178.696793 203.592194,171.337936 223.399155,163.805222 
	C225.120789,162.933975 226.842422,162.062729 228.992371,160.865265 
	C229.325974,160.447647 229.659561,160.030014 230.593170,159.435364 
	C230.412399,157.629669 230.231644,155.823959 230.119415,153.476395 
	C230.052826,153.306946 229.986237,153.137512 229.839523,152.245758 
	C228.025620,151.652634 226.215256,150.555283 224.397278,150.542542 
	C199.569473,150.368530 174.740616,150.344482 149.848373,149.343628 
	C150.074448,146.364655 150.210495,143.375626 150.542404,140.408493 
	C151.868744,128.551376 153.255936,116.701057 154.850647,104.072708 
	C155.202225,102.807899 156.014282,101.462036 155.808914,100.295242 
	C155.389359,97.911591 155.113800,94.595474 153.525787,93.528526 
	C150.872375,91.745758 147.910568,93.134659 146.034683,96.068352 
	C144.620224,98.280418 143.010681,100.367737 141.792175,102.621162 
	C141.792175,102.621162 141.472961,102.567627 141.046799,102.837852 
	C140.917389,103.142899 140.787979,103.447945 140.783005,103.784645 
	C140.783005,103.784645 140.720886,103.672272 140.283371,103.819061 
	C140.070099,104.216064 139.856827,104.613060 139.153625,105.357094 
	C139.093369,105.547928 139.033096,105.738770 138.441605,106.188911 
	C138.156097,106.697655 137.870590,107.206398 137.802734,107.818687 
	C137.802734,107.818687 137.625397,107.655479 137.107620,107.959724 
	C136.554565,108.779686 136.001511,109.599648 135.468719,110.525467 
	C135.468719,110.525467 135.373550,110.576088 134.977524,110.844452 
	C134.749878,111.090569 134.631134,111.381187 134.753967,111.777939 
	C134.753967,111.777939 134.713440,111.637360 134.191315,111.878525 
M187.262787,226.104340 
	C185.230179,227.859970 185.723129,229.270996 188.095642,229.799362 
	C189.645874,230.144592 191.357574,229.764709 193.872849,229.872360 
	C196.249176,229.823776 198.625504,229.775192 201.710693,229.882950 
	C205.159424,230.061569 203.780197,232.067917 202.388763,232.702408 
	C197.819855,234.785812 193.012314,236.339462 188.376328,238.286819 
	C187.250977,238.759506 186.432037,239.961655 185.472214,240.828384 
	C186.664230,241.367111 187.948425,242.497009 189.030151,242.328339 
	C191.749039,241.904373 194.376480,240.893799 197.704941,240.070236 
	C198.874390,239.514893 200.043839,238.959534 201.880615,238.202484 
	C203.864639,236.111084 205.848663,234.019684 208.563248,231.870346 
	C214.177414,235.249130 219.686935,238.827286 225.478897,241.867340 
	C226.938065,242.633224 229.301102,241.677002 231.248795,241.512131 
	C229.826172,240.288116 228.574417,238.725632 226.948288,237.904709 
	C222.408218,235.612671 217.713135,233.627747 213.079239,231.521576 
	C213.279037,230.984726 213.478851,230.447891 213.678650,229.911041 
	C218.111633,229.911041 222.551834,230.048950 226.972763,229.818085 
	C228.138519,229.757202 229.244797,228.557404 230.378403,227.880600 
	C229.246735,227.220169 228.131485,226.025192 226.980606,225.989792 
	C221.344254,225.816467 215.698410,225.951950 209.841476,225.059525 
	C209.121719,222.411057 210.256348,221.403961 212.861877,221.442291 
	C217.355103,221.508408 221.858322,221.612534 226.339722,221.372192 
	C227.876480,221.289780 229.360474,220.223404 230.868576,219.606567 
	C229.341751,218.797073 227.849136,217.377319 226.281876,217.289520 
	C221.037323,216.995697 215.766068,217.178070 210.505051,217.178070 
	C210.435623,216.646072 210.366180,216.114059 210.296753,215.582062 
	C215.336533,210.767197 223.181473,216.579391 229.412613,211.221985 
	C227.055374,210.408020 225.579041,209.550278 224.049484,209.441574 
	C220.736237,209.206177 217.383057,209.516220 214.073288,209.257248 
	C212.916916,209.166763 211.840057,208.060379 210.726883,207.417908 
	C211.786011,206.909286 212.830750,206.000473 213.906754,205.961792 
	C218.395279,205.800385 222.902206,206.056503 227.381577,205.798401 
	C228.542587,205.731506 229.628174,204.355118 230.748398,203.580200 
	C229.595261,202.887543 228.494461,201.734818 227.278244,201.596405 
	C224.608688,201.292633 221.880722,201.502243 220.128647,201.502243 
	C219.435333,198.491470 219.002274,196.610855 218.569199,194.730240 
	C217.365707,196.070435 215.952820,197.278641 215.005981,198.780609 
	C213.443298,201.259567 205.492111,202.836380 203.528290,200.651825 
	C201.918915,198.861557 200.592499,194.809937 199.470703,194.926865 
	C193.850677,195.512726 199.609085,198.729218 198.592316,200.630798 
	C198.519684,200.766647 198.468521,200.913956 198.223938,201.482010 
	C196.442398,201.482010 194.422348,201.207794 192.518204,201.560120 
	C190.663300,201.903351 188.927048,202.887665 187.138687,203.590500 
	C188.843948,204.356369 190.501831,205.615768 192.264389,205.785034 
	C195.893768,206.133606 199.586594,205.773605 203.236374,205.990295 
	C204.201401,206.047592 205.104736,207.143616 206.036407,207.762665 
	C205.147720,208.292236 204.281982,209.226822 203.366241,209.278717 
	C200.047531,209.466736 196.695770,209.169189 193.390671,209.453049 
	C192.019211,209.570847 190.733948,210.692398 189.409485,211.357483 
	C190.799911,212.153107 192.133484,213.480469 193.592300,213.636444 
	C196.884903,213.988495 200.246384,213.646942 203.563995,213.848389 
	C204.422180,213.900482 205.221832,214.916428 206.048370,215.489624 
	C205.208359,216.041214 204.387589,217.031525 203.525040,217.069366 
	C199.537277,217.244278 195.521317,216.948959 191.551483,217.268997 
	C190.130463,217.383560 188.810822,218.755569 187.444916,219.553665 
	C188.804337,220.188370 190.140640,221.303741 191.527374,221.370422 
	C196.268250,221.598373 201.026825,221.457779 206.297104,221.457779 
	C205.707703,223.538666 205.355972,224.780426 204.070969,225.944138 
	C198.715286,225.983948 193.359619,226.023758 187.262787,226.104340 
M254.522171,234.723434 
	C254.281998,235.993149 254.041824,237.262863 253.799698,238.542847 
	C252.230362,238.681458 250.758209,238.487000 249.681396,239.049408 
	C249.175766,239.313492 249.431519,241.035278 249.342224,242.096466 
	C251.616959,242.191147 254.000412,242.717331 256.116974,242.184158 
	C257.064117,241.945587 257.998505,239.597717 258.041473,238.179871 
	C258.242828,231.532745 258.130524,224.876175 258.133087,218.222977 
	C258.137939,205.567993 258.140015,205.724518 245.353333,205.825760 
	C241.534027,205.856003 240.385941,207.346298 240.410980,210.784058 
	C240.477661,219.931747 240.385223,229.080963 240.511124,238.227448 
	C240.529846,239.587799 241.386719,240.936600 241.855804,242.290756 
	C242.383469,242.236145 242.911133,242.181534 243.438782,242.126923 
	C243.674423,240.477127 244.094238,238.829498 244.113693,237.177155 
	C244.195892,230.192291 244.156769,223.205994 244.166168,216.220230 
	C244.174911,209.714966 244.177521,209.704071 250.876663,209.891281 
	C251.845917,209.918365 252.810608,210.107925 254.870636,210.351639 
	C254.870636,216.843765 254.870636,223.272034 254.118500,229.871567 
	C252.757935,224.893265 251.514404,219.877487 249.942047,214.966995 
	C249.611435,213.934509 248.072678,213.288864 247.090622,212.464966 
	C246.799484,213.632935 246.098572,214.872223 246.287308,215.956680 
	C247.163162,220.988754 248.413025,225.956070 249.276917,230.989822 
	C249.894043,234.585724 251.517471,235.517410 254.522171,234.723434 
M276.741608,233.366852 
	C277.674286,236.357315 277.641388,238.641693 273.501526,238.684067 
	C272.667175,238.692596 271.844696,239.863724 271.016724,240.498825 
	C271.903748,241.248672 272.696960,242.471237 273.693542,242.668961 
	C278.831665,243.688461 281.308655,241.705688 281.428864,236.479782 
	C281.562653,230.663742 281.532410,224.841888 281.468658,219.023712 
	C281.290558,202.774597 283.510895,205.766907 267.148560,205.432465 
	C266.816345,205.425674 266.362915,205.302063 266.170837,205.468811 
	C264.946289,206.532059 262.781189,207.634201 262.750031,208.773499 
	C262.481903,218.572281 262.529419,228.383041 262.710907,238.186005 
	C262.730835,239.261368 264.186218,240.310135 264.975800,241.371246 
	C265.585083,240.165375 266.647400,238.985840 266.719269,237.748749 
	C266.940704,233.938507 266.778320,230.106262 266.774780,226.282578 
	C266.769806,220.882965 266.773529,215.483353 266.773529,210.252228 
	C270.764313,210.252228 273.812225,210.252228 277.224335,210.252228 
	C277.224335,214.852081 277.372284,218.998688 277.171112,223.128296 
	C277.041962,225.778931 276.398590,228.404510 276.015961,230.210770 
	C274.831604,225.058594 273.752991,219.877686 272.367432,214.780182 
	C272.111420,213.838226 270.615234,213.233353 269.691437,212.472900 
	C269.274384,213.431747 268.344482,214.500610 268.522766,215.331772 
	C269.770172,221.147552 271.127197,226.947311 272.715851,232.678253 
	C273.256104,234.627182 274.561554,236.396118 276.741608,233.366852 
M292.011292,210.764908 
	C292.012970,215.088776 292.134399,219.416840 291.982941,223.735336 
	C291.829010,228.122345 293.542053,230.235229 298.139465,229.993393 
	C302.238922,229.777740 306.358673,229.948074 311.001129,229.948074 
	C311.001129,233.470261 310.796478,236.437424 311.084747,239.355911 
	C311.235962,240.886688 312.251099,242.332123 312.876099,243.816101 
	C313.601898,242.257401 314.765137,240.750580 314.957458,239.128632 
	C315.299500,236.244019 315.053558,233.289703 315.053558,229.973206 
	C320.394623,229.973206 325.025482,229.911331 329.653778,229.993210 
	C333.218140,230.056259 334.882111,228.319809 334.900726,224.869568 
	C334.928528,219.714325 334.878937,214.558533 334.928650,209.403610 
	C334.968903,205.229904 332.949036,203.326431 328.803894,203.399460 
	C324.377960,203.477417 319.949585,203.417038 315.013275,203.417038 
	C315.013275,200.633469 315.205292,198.480377 314.918884,196.392944 
	C314.804047,195.556305 313.636658,194.864090 312.948334,194.106155 
	C312.308167,194.903198 311.228088,195.642975 311.115387,196.508667 
	C310.844666,198.588120 311.027802,200.726654 311.027802,203.429260 
	C306.484680,203.429260 302.538849,203.536224 298.601318,203.401199 
	C294.049988,203.245117 291.622406,205.048325 292.011292,210.764908 
M381.953949,241.636780 
	C385.201355,241.615967 386.155457,239.791550 386.135040,236.788010 
	C386.055786,225.140259 386.044586,213.491165 386.141144,201.843658 
	C386.169647,198.404816 384.755676,197.129730 381.358856,197.168335 
	C370.876801,197.287491 360.390839,197.323166 349.910095,197.157181 
	C346.186005,197.098190 344.942322,198.517212 344.990326,202.148453 
	C345.139801,213.461990 345.156677,224.780121 345.000702,236.093369 
	C344.944244,240.189514 346.517120,241.755661 350.593506,241.694260 
	C360.741821,241.541412 370.894043,241.647736 381.953949,241.636780 
M238.945679,199.875717 
	C252.873230,200.100113 266.800537,200.359146 280.728973,200.457397 
	C281.513306,200.462936 282.306946,199.145401 283.096252,198.443634 
	C282.015808,197.702301 280.942871,196.329132 279.853699,196.316132 
	C267.205017,196.165054 254.552597,196.141464 241.905533,196.350357 
	C240.753891,196.369385 239.632675,198.229752 238.945679,199.875717 
M363.157410,255.309174 
	C361.476959,253.415100 359.796509,251.521027 357.388031,248.806396 
	C357.388031,256.149017 357.388031,262.165222 357.388031,268.181458 
	C357.960022,268.198059 358.532043,268.214661 359.104034,268.231262 
	C359.104034,264.286987 359.104034,260.342682 359.104034,256.090118 
	C364.458649,258.744629 364.666656,266.251923 370.742432,266.560150 
	C370.742432,260.705750 370.742432,255.433731 370.742432,250.161728 
	C370.191071,250.137238 369.639679,250.112747 369.088318,250.088242 
	C369.088318,253.883148 369.088318,257.678070 369.088318,261.472961 
	C368.690369,261.565735 368.292450,261.658508 367.894501,261.751251 
	C366.457520,259.799316 365.020508,257.847382 363.157410,255.309174 
M301.648865,255.663101 
	C301.604858,251.717545 304.607849,252.810257 306.650970,252.899612 
	C307.729706,252.946808 308.760834,254.081589 309.813477,254.725327 
	C307.834412,256.258118 305.855377,257.790894 303.454895,259.650055 
	C306.131165,262.585999 308.967377,265.697449 311.803619,268.808899 
	C312.312439,268.412201 312.821259,268.015503 313.330078,267.618805 
	C311.801300,265.301941 310.272552,262.985107 308.743805,260.668243 
	C309.141754,260.759094 309.539703,260.849976 309.937653,260.940826 
	C310.772888,258.523590 312.965393,255.287292 312.119080,253.884796 
	C310.908691,251.878983 307.529846,251.080963 304.965149,250.043808 
	C303.967926,249.640549 302.597443,249.754059 301.524292,250.067703 
	C300.590973,250.340500 299.136505,251.202347 299.113892,251.846085 
	C298.921478,257.324432 299.003784,262.812439 299.003784,268.297546 
	C299.747742,268.317993 300.491699,268.338440 301.235657,268.358887 
	C301.376007,264.443909 301.516388,260.528931 301.648865,255.663101 
M221.756195,252.233276 
	C220.026428,257.522614 216.496124,262.288025 215.962448,267.930389 
	C218.967926,265.980835 221.376434,263.172180 223.630478,263.291077 
	C226.107971,263.421814 228.443298,266.247345 230.840561,267.898804 
	C229.499435,261.996368 227.090424,256.271301 224.562408,250.599243 
	C224.540649,250.550461 222.916199,251.215988 221.756195,252.233276 
M385.905121,257.497650 
	C384.726807,254.757950 383.548492,252.018250 382.370178,249.278564 
	C381.838531,249.341934 381.306885,249.405304 380.775269,249.468689 
	C378.369141,255.355072 375.963013,261.241455 373.314056,267.721954 
	C377.030457,265.590424 379.487183,263.069397 381.883789,263.125336 
	C384.195496,263.179291 386.445099,265.893036 390.083130,268.362091 
	C388.491394,264.170288 387.357635,261.184601 385.905121,257.497650 
M348.796387,253.063965 
	C348.404785,252.113983 348.013184,251.164001 347.621582,250.214020 
	C347.205109,250.319077 346.788666,250.424133 346.372192,250.529175 
	C346.146027,252.905426 345.919861,255.281693 345.690521,257.691559 
	C342.962250,257.691559 340.572174,257.691559 338.381287,257.691559 
	C337.869934,254.927338 337.435760,252.580368 337.001587,250.233398 
	C336.584381,250.316864 336.167175,250.400330 335.749969,250.483795 
	C335.749969,256.530029 335.749969,262.576294 335.749969,268.622559 
	C336.254639,268.653198 336.759308,268.683838 337.263977,268.714508 
	C337.598053,266.262695 337.932129,263.810883 338.265656,261.363342 
	C340.946503,261.363342 343.328003,261.363342 345.675110,261.363342 
	C345.983765,264.082153 346.246185,266.394043 346.508636,268.705933 
	C347.259521,268.701111 348.010437,268.696289 348.761353,268.691437 
	C348.778137,263.775269 348.794952,258.859100 348.796387,253.063965 
M202.154541,258.507294 
	C202.150192,260.006287 201.902176,261.556091 202.201477,262.991791 
	C202.599899,264.903046 203.152069,268.137451 204.116486,268.323456 
	C207.104645,268.899780 210.319244,268.302063 213.445953,268.160034 
	C213.450607,267.505157 213.455246,266.850311 213.459885,266.195435 
	C210.777527,266.030914 208.095154,265.866394 205.285095,265.694031 
	C205.285095,263.976807 205.285095,262.583588 205.285095,261.302368 
	C208.049026,260.719330 210.486008,260.205261 212.922989,259.691223 
	C212.806946,259.181488 212.690887,258.671753 212.574829,258.162018 
	C210.149933,258.012115 207.725021,257.862213 204.934311,257.689697 
	C205.079971,255.884857 205.192169,254.494736 205.296829,253.198120 
	C208.392700,252.815414 211.061508,252.485489 213.730316,252.155563 
	C205.226395,247.678589 202.138214,249.437622 202.154541,258.507294 
M294.806549,252.816788 
	C290.106537,249.415054 287.227570,249.380493 283.801544,252.684692 
	C280.557373,255.813492 280.015991,260.824646 282.709290,264.459747 
	C285.188019,267.805237 288.510101,268.810242 292.372833,267.099213 
	C296.428253,265.302826 298.092285,260.519104 296.489990,255.581039 
	C296.239960,254.810562 295.704315,254.132767 294.806549,252.816788 
M242.981720,264.598816 
	C240.744598,264.449493 237.775818,265.112427 236.466553,263.933044 
	C235.023285,262.632965 234.235199,259.449371 234.683395,257.422791 
	C236.019623,251.381012 240.811356,252.587280 246.322906,254.600296 
	C245.072632,252.652390 244.858322,251.986984 244.401703,251.660843 
	C241.398743,249.516022 238.241837,249.153046 235.250992,251.549561 
	C231.624313,254.455536 230.655792,258.235718 232.132751,262.658142 
	C233.380646,266.394684 236.031677,268.516357 239.866928,268.483124 
	C241.478638,268.469147 243.078781,267.121552 244.684174,266.380219 
	C244.337692,265.696411 243.991226,265.012604 242.981720,264.598816 
M323.008118,264.220703 
	C322.878448,261.249390 321.526764,257.232727 322.939697,255.581055 
	C324.571869,253.673035 328.640411,253.849136 331.911957,253.057159 
	C331.081207,250.532639 328.349335,249.836929 325.597839,250.381882 
	C321.108002,251.271103 318.842865,254.623444 318.681061,259.013245 
	C318.522797,263.306244 320.183319,266.927277 324.628143,268.371643 
	C327.861206,269.422241 330.633392,268.692566 332.589325,265.376526 
	C329.294098,265.171692 326.430969,264.993744 323.008118,264.220703 
M269.500305,268.027740 
	C270.594604,265.725952 271.688904,263.424164 272.843414,260.995697 
	C274.846619,260.642334 277.178772,260.230927 279.510925,259.819550 
	C278.782349,258.404938 278.200745,258.239716 277.642395,258.016388 
	C275.578522,257.190826 271.574371,259.963440 271.665253,255.261093 
	C271.746887,251.037216 275.422546,253.453857 277.428925,252.741180 
	C278.333435,252.419907 279.214844,252.033585 280.106720,251.676773 
	C280.055847,251.244919 280.005005,250.813065 279.954132,250.381210 
	C277.939728,250.254211 275.910278,250.240875 273.914154,249.976028 
	C270.014191,249.458603 268.514984,250.919235 268.867615,254.946106 
	C269.228485,259.066895 269.019592,263.237579 269.500305,268.027740 
M247.906433,254.747772 
	C247.906433,259.142273 247.906433,263.536743 247.906433,267.931244 
	C248.482971,267.916595 249.059494,267.901978 249.636032,267.887329 
	C249.914825,265.563721 250.193634,263.240112 250.468170,260.952148 
	C253.548401,260.952148 256.313324,260.952148 259.291321,260.952148 
	C259.732666,263.401459 260.144562,265.687378 260.556458,267.973297 
	C260.834229,267.889465 261.112000,267.805634 261.389771,267.721771 
	C261.389771,261.953064 261.389771,256.184357 261.389771,250.415665 
	C260.964539,250.418259 260.539337,250.420853 260.114105,250.423431 
	C259.930664,252.788773 259.747192,255.154114 259.559174,257.577942 
	C256.234650,257.577942 253.232437,257.577942 250.242264,257.577942 
	C250.086349,255.116165 249.958130,253.091492 249.829910,251.066803 
	C249.446045,251.039444 249.062180,251.012085 248.678314,250.984741 
	C248.429932,251.927505 248.181534,252.870270 247.906433,254.747772 
M189.538925,252.883850 
	C189.989304,256.318146 190.453064,259.750763 190.884430,263.187439 
	C191.101425,264.916290 191.259628,266.652527 191.444412,268.385406 
	C192.041443,268.357849 192.638474,268.330292 193.235504,268.302734 
	C193.235504,263.332245 193.235504,258.361755 193.235504,253.707718 
	C195.682007,252.891632 197.244171,252.370544 198.806351,251.849442 
	C198.749817,251.448883 198.693298,251.048325 198.636765,250.647766 
	C194.200684,250.647766 189.764587,250.647766 185.328491,250.647766 
	C185.233749,251.061188 185.139008,251.474609 185.044266,251.888046 
	C186.257294,252.188278 187.470306,252.488525 189.538925,252.883850 
M353.956482,259.499115 
	C353.882141,256.446259 353.807800,253.393387 353.733459,250.340515 
	C353.098663,250.369415 352.463867,250.398300 351.829071,250.427200 
	C351.829071,256.490845 351.829071,262.554504 351.829071,268.618164 
	C352.538330,268.651947 353.247559,268.685699 353.956818,268.719482 
	C353.956818,265.963104 353.956818,263.206757 353.956482,259.499115 
z"/>
<path fill="#0D5094" opacity="1.000000" stroke="none" 
	d="
M138.972809,105.929596 
	C139.033096,105.738770 139.093369,105.547928 139.638367,105.121223 
	C140.322357,104.480988 140.521622,104.076630 140.720886,103.672272 
	C140.720886,103.672272 140.783005,103.784645 141.013153,103.710373 
	C141.319870,103.279938 141.396408,102.923782 141.472961,102.567627 
	C141.472961,102.567627 141.792175,102.621162 142.013611,102.617645 
	C143.296783,101.874184 144.367767,100.516823 145.418198,100.532539 
	C147.191574,100.559074 148.951920,101.455292 150.717743,101.985786 
	C150.160034,103.182510 149.523834,104.349731 149.060532,105.581947 
	C148.009125,108.378258 147.042816,111.206551 146.027496,114.010483 
	C146.013107,113.999123 146.024551,114.032387 145.779541,114.150665 
	C145.386002,114.591827 145.237488,114.914711 145.072144,115.509544 
	C144.738220,116.197891 144.421112,116.614288 143.851471,117.135208 
	C143.422836,117.548882 143.246704,117.858032 143.041656,118.385086 
	C142.893585,118.889778 142.892563,119.176987 142.731873,119.698196 
	C134.755600,130.642914 127.057137,141.354065 119.131851,152.260788 
	C116.747360,155.890015 114.589706,159.323654 112.142380,162.896271 
	C110.280205,164.953827 108.616554,166.805481 107.150566,168.802246 
	C99.673653,178.986267 92.247826,189.207794 84.451790,199.339417 
	C81.325668,197.461807 78.551865,195.660980 75.916557,193.546265 
	C82.479858,183.820831 88.904678,174.409271 95.610664,164.834595 
	C97.965981,161.199219 100.040131,157.726944 102.114288,154.254684 
	C103.549728,152.707138 105.146873,151.279236 106.394691,149.592850 
	C115.343109,137.499390 124.220505,125.353363 133.687439,112.962463 
	C134.407440,112.346382 134.560440,111.991875 134.713440,111.637360 
	C134.713440,111.637360 134.753967,111.777939 134.981812,111.703033 
	C135.264267,111.277443 135.318909,110.926765 135.373550,110.576088 
	C135.373550,110.576088 135.468719,110.525467 135.828674,110.550781 
	C136.667557,109.602562 137.146484,108.629021 137.625397,107.655479 
	C137.625397,107.655479 137.802734,107.818687 138.020050,107.726318 
	C138.482513,107.065834 138.727661,106.497719 138.972809,105.929596 
z"/>
<path fill="#28A09D" opacity="1.000000" stroke="none" 
	d="
M141.608521,198.093567 
	C130.670609,204.349564 119.732712,210.605560 108.177246,216.969330 
	C107.070465,216.994339 106.581245,216.911575 106.070770,216.883789 
	C106.049500,216.938736 106.146477,216.871750 106.033981,216.622589 
	C105.751541,216.307587 105.581604,216.241730 105.323975,215.880493 
	C103.960037,214.400070 102.683800,213.215027 101.661728,211.755341 
	C113.773087,204.126846 125.644188,196.795212 137.469803,189.390930 
	C138.942001,188.469131 140.172989,187.162079 141.870972,186.041779 
	C144.192734,184.736862 146.159271,183.423737 148.510483,182.132202 
	C149.553345,182.112854 150.299301,182.261398 150.856857,182.003159 
	C164.435791,175.713989 177.994644,169.381485 191.974258,163.066849 
	C195.220551,162.958679 198.049713,162.840469 201.348892,162.829681 
	C208.750473,163.008881 215.682007,163.080688 222.611176,163.337952 
	C222.608795,163.523422 222.589966,163.893906 222.589966,163.893906 
	C203.592194,171.337936 184.560318,178.696793 165.617828,186.278931 
	C160.076233,188.497086 154.788910,191.350540 148.759659,194.159241 
	C145.959015,195.634964 143.783768,196.864258 141.608521,198.093567 
z"/>
<path fill="#DA0E28" opacity="1.000000" stroke="none" 
	d="
M101.407570,212.029984 
	C102.683800,213.215027 103.960037,214.400070 105.282608,216.040497 
	C105.601456,216.621185 105.873970,216.746460 106.146484,216.871735 
	C106.146477,216.871750 106.049500,216.938736 106.166702,217.220520 
	C108.419945,219.005081 110.555984,220.507843 112.692032,222.010590 
	C112.692032,222.010590 113.048141,222.155838 113.155716,222.693848 
	C117.598541,227.096970 121.933777,230.962082 126.269012,234.827194 
	C126.269012,234.827194 126.159019,234.861038 126.150719,235.166565 
	C128.177963,237.264267 130.213501,239.056427 132.249054,240.848587 
	C132.249054,240.848587 132.120605,240.882050 132.198349,241.160950 
	C133.238052,242.255142 134.199997,243.070450 135.161957,243.885742 
	C135.161957,243.885742 135.054291,243.947906 135.077713,244.257202 
	C136.870422,246.223618 138.639709,247.880753 140.409012,249.537888 
	C140.409012,249.537888 140.064194,249.647003 140.223907,249.911499 
	C140.711639,250.339859 141.039658,250.503738 141.367691,250.667618 
	C141.367691,250.667618 141.217987,250.781586 141.273987,251.070068 
	C141.569504,252.556335 141.809036,253.754120 142.023773,254.976486 
	C141.998993,255.001068 141.950943,255.049347 141.605362,255.005356 
	C139.927032,253.813370 138.673508,252.552597 137.241226,251.546219 
	C135.493484,250.318161 133.595581,249.303772 131.762619,248.196991 
	C131.762619,248.196991 131.920517,248.088867 131.885681,247.813232 
	C130.792999,246.767822 129.735123,245.998062 128.677261,245.228302 
	C128.677261,245.228302 128.820221,245.181076 128.822632,244.887177 
	C127.409683,243.526413 125.994301,242.459534 124.578918,241.392670 
	C124.578918,241.392670 124.809898,241.203293 124.732063,240.956055 
	C122.683449,239.215698 120.712669,237.722565 118.741898,236.229431 
	C118.741898,236.229431 118.857841,236.166016 118.782562,235.892761 
	C117.992157,235.241776 117.277031,234.864029 116.561913,234.486267 
	C116.690796,234.353439 116.819672,234.220596 116.786224,233.919800 
	C114.605736,232.300705 112.587585,230.849564 110.569443,229.398422 
	C110.569443,229.398422 110.795860,229.258743 110.721771,228.996918 
	C109.707733,228.199615 108.767799,227.664139 107.827858,227.128677 
	C107.827858,227.128677 107.932991,227.061966 107.894363,226.755066 
	C107.111061,226.103577 106.366394,225.758972 105.621719,225.414383 
	C105.621719,225.414383 105.849266,225.035141 105.753174,224.878021 
	C103.791191,223.476822 101.925308,222.232758 99.728516,220.922607 
	C97.504150,219.719086 95.610687,218.581635 93.564865,217.140991 
	C88.664909,213.722229 83.917320,210.606659 78.960953,207.244110 
	C75.988670,205.246490 73.225159,203.495850 70.461639,201.745209 
	C57.469204,194.460236 44.511581,187.111984 31.462473,179.929962 
	C27.693163,177.855392 23.660904,176.258575 19.868914,174.174393 
	C22.721975,172.485123 25.455315,171.064209 28.528469,169.712860 
	C30.541765,170.487534 32.215248,171.192657 34.251312,171.994873 
	C48.335281,179.348022 62.056675,186.604095 75.778069,193.860168 
	C78.551865,195.660980 81.325668,197.461807 84.559570,199.644653 
	C90.482300,204.027786 95.944931,208.028885 101.407570,212.029984 
z"/>
<path fill="#ED9443" opacity="1.000000" stroke="none" 
	d="
M200.878860,162.722260 
	C198.049713,162.840469 195.220551,162.958679 191.463470,163.007080 
	C176.725204,162.837524 162.914886,162.737793 149.081406,162.206787 
	C149.342834,157.944855 149.627426,154.114182 149.912018,150.283508 
	C174.740616,150.344482 199.569473,150.368530 224.397278,150.542542 
	C226.215256,150.555283 228.025620,151.652634 229.481445,152.568771 
	C226.353729,152.669937 223.297974,151.583191 220.867706,152.387192 
	C213.348740,154.874664 206.067963,158.082184 198.293442,161.169495 
	C199.533630,161.914322 200.206253,162.318283 200.878860,162.722260 
z"/>
<path fill="#919191" opacity="1.000000" stroke="none" 
	d="
M205.004242,226.022186 
	C205.355972,224.780426 205.707703,223.538666 206.297104,221.457779 
	C201.026825,221.457779 196.268250,221.598373 191.527374,221.370422 
	C190.140640,221.303741 188.804337,220.188370 187.444916,219.553665 
	C188.810822,218.755569 190.130463,217.383560 191.551483,217.268997 
	C195.521317,216.948959 199.537277,217.244278 203.525040,217.069366 
	C204.387589,217.031525 205.208359,216.041214 206.048370,215.489624 
	C205.221832,214.916428 204.422180,213.900482 203.563995,213.848389 
	C200.246384,213.646942 196.884903,213.988495 193.592300,213.636444 
	C192.133484,213.480469 190.799911,212.153107 189.409485,211.357483 
	C190.733948,210.692398 192.019211,209.570847 193.390671,209.453049 
	C196.695770,209.169189 200.047531,209.466736 203.366241,209.278717 
	C204.281982,209.226822 205.147720,208.292236 206.036407,207.762665 
	C205.104736,207.143616 204.201401,206.047592 203.236374,205.990295 
	C199.586594,205.773605 195.893768,206.133606 192.264389,205.785034 
	C190.501831,205.615768 188.843948,204.356369 187.138687,203.590500 
	C188.927048,202.887665 190.663300,201.903351 192.518204,201.560120 
	C194.422348,201.207794 196.442398,201.482010 198.223938,201.482010 
	C198.468521,200.913956 198.519684,200.766647 198.592316,200.630798 
	C199.609085,198.729218 193.850677,195.512726 199.470703,194.926865 
	C200.592499,194.809937 201.918915,198.861557 203.528290,200.651825 
	C205.492111,202.836380 213.443298,201.259567 215.005981,198.780609 
	C215.952820,197.278641 217.365707,196.070435 218.569199,194.730240 
	C219.002274,196.610855 219.435333,198.491470 220.128647,201.502243 
	C221.880722,201.502243 224.608688,201.292633 227.278244,201.596405 
	C228.494461,201.734818 229.595261,202.887543 230.748413,203.580200 
	C229.628174,204.355118 228.542587,205.731506 227.381577,205.798401 
	C222.902206,206.056503 218.395279,205.800385 213.906754,205.961792 
	C212.830750,206.000473 211.786011,206.909286 210.726883,207.417908 
	C211.840057,208.060379 212.916916,209.166763 214.073288,209.257248 
	C217.383057,209.516220 220.736237,209.206177 224.049484,209.441574 
	C225.579041,209.550278 227.055374,210.408020 229.412613,211.221985 
	C223.181473,216.579391 215.336533,210.767197 210.296753,215.582062 
	C210.366180,216.114059 210.435623,216.646072 210.505051,217.178070 
	C215.766068,217.178070 221.037323,216.995697 226.281876,217.289520 
	C227.849136,217.377319 229.341751,218.797073 230.868576,219.606567 
	C229.360474,220.223404 227.876480,221.289780 226.339722,221.372192 
	C221.858322,221.612534 217.355103,221.508408 212.861877,221.442291 
	C210.256348,221.403961 209.121719,222.411057 209.593903,225.558563 
	C207.934967,226.759399 206.523605,227.461212 205.112244,228.163025 
	C204.674362,228.822906 204.236496,229.482773 203.798615,230.142639 
	C205.143295,230.737869 206.487976,231.333099 207.832672,231.928299 
	C205.848663,234.019684 203.864639,236.111084 201.352509,237.986145 
	C198.169556,236.307556 197.330414,237.770508 197.040588,240.118439 
	C194.376480,240.893799 191.749039,241.904373 189.030151,242.328339 
	C187.948425,242.497009 186.664230,241.367111 185.472198,240.828369 
	C186.432037,239.961655 187.250977,238.759506 188.376328,238.286819 
	C193.012314,236.339462 197.819855,234.785812 202.388763,232.702408 
	C203.780197,232.067917 205.159424,230.061569 201.388779,229.555084 
	C202.379318,228.158859 203.691772,227.090515 205.004242,226.022186 
z"/>
<path fill="#0E5194" opacity="1.000000" stroke="none" 
	d="
M70.203148,202.014297 
	C73.225159,203.495850 75.988670,205.246490 78.797989,207.586792 
	C68.271904,223.066956 57.700005,237.957474 47.070770,253.200821 
	C44.958866,256.342407 42.904301,259.131195 40.655804,262.040100 
	C40.221130,262.358276 40.044086,262.602509 39.723824,263.025665 
	C39.257366,263.369690 39.060310,263.628571 38.590286,263.993195 
	C34.508450,267.698120 30.806198,271.391754 27.000257,274.975220 
	C24.437384,277.388306 21.728025,279.645813 19.084206,281.972900 
	C21.000875,278.514008 22.722122,274.928619 24.865633,271.616516 
	C39.843067,248.473831 54.907829,225.387650 70.203148,202.014297 
z"/>
<path fill="#8F8F8F" opacity="1.000000" stroke="none" 
	d="
M292.013824,210.304230 
	C291.622406,205.048325 294.049988,203.245117 298.601318,203.401199 
	C302.538849,203.536224 306.484680,203.429260 311.027802,203.429260 
	C311.027802,200.726654 310.844666,198.588120 311.115387,196.508667 
	C311.228088,195.642975 312.308167,194.903198 312.948334,194.106140 
	C313.636658,194.864090 314.804047,195.556305 314.918884,196.392944 
	C315.205292,198.480377 315.013275,200.633469 315.013275,203.417038 
	C319.949585,203.417038 324.377960,203.477417 328.803894,203.399460 
	C332.949036,203.326431 334.968903,205.229904 334.928650,209.403610 
	C334.878937,214.558533 334.928528,219.714325 334.900726,224.869568 
	C334.882111,228.319809 333.218140,230.056259 329.653778,229.993210 
	C325.025482,229.911331 320.394623,229.973206 315.053558,229.973206 
	C315.053558,233.289703 315.299500,236.244019 314.957458,239.128632 
	C314.765137,240.750580 313.601898,242.257401 312.876099,243.816101 
	C312.251099,242.332123 311.235962,240.886688 311.084747,239.355911 
	C310.796478,236.437424 311.001129,233.470261 311.001129,229.948074 
	C306.358673,229.948074 302.238922,229.777740 298.139465,229.993393 
	C293.542053,230.235229 291.829010,228.122345 291.982941,223.735336 
	C292.134399,219.416840 292.012970,215.088776 292.013824,210.304230 
M319.613953,225.274673 
	C330.916199,225.276779 330.916534,225.276779 330.871765,213.750702 
	C330.867920,212.757706 331.187164,211.582642 330.766510,210.815598 
	C330.175415,209.737778 329.080505,208.247803 328.116058,208.182098 
	C323.900421,207.894928 319.654114,208.058533 315.034485,208.058533 
	C315.034485,213.188644 315.150787,217.634384 314.992310,222.070328 
	C314.891937,224.879181 316.314697,225.489059 319.613953,225.274673 
M301.667755,208.032394 
	C299.534393,208.461166 296.186188,206.671051 296.110229,210.913712 
	C296.027863,215.515015 296.091583,220.118927 296.091583,224.993530 
	C301.281189,224.993530 305.842316,224.993530 310.708466,224.993530 
	C310.708466,219.341095 310.708466,213.960571 310.708466,208.032532 
	C307.841187,208.032532 305.227936,208.032532 301.667755,208.032394 
z"/>
<path fill="#2B9F9F" opacity="1.000000" stroke="none" 
	d="
M38.925743,263.934998 
	C39.060310,263.628571 39.257366,263.369690 39.952866,262.947083 
	C40.680264,262.541718 40.833897,262.269806 40.849731,261.919983 
	C42.904301,259.131195 44.958866,256.342407 47.421326,253.253235 
	C52.930222,248.864594 57.966259,244.691895 63.146046,240.705994 
	C73.294075,232.897003 83.522232,225.192154 93.717224,217.444183 
	C95.610687,218.581635 97.504150,219.719086 99.713074,221.115051 
	C100.125092,221.612518 100.223526,221.850693 100.323822,222.088104 
	C82.994583,235.801056 65.451302,249.255325 48.429882,263.340271 
	C40.383900,269.998199 33.337326,277.863892 25.487265,284.947937 
	C26.422638,282.641479 27.648710,280.529114 29.006653,278.505280 
	C32.280186,273.626495 35.615398,268.789093 38.925743,263.934998 
z"/>
<path fill="#919191" opacity="1.000000" stroke="none" 
	d="
M381.499329,241.643387 
	C370.894043,241.647736 360.741821,241.541412 350.593506,241.694260 
	C346.517120,241.755661 344.944244,240.189514 345.000702,236.093369 
	C345.156677,224.780121 345.139801,213.461990 344.990326,202.148453 
	C344.942322,198.517212 346.186005,197.098190 349.910095,197.157181 
	C360.390839,197.323166 370.876801,197.287491 381.358856,197.168335 
	C384.755676,197.129730 386.169647,198.404816 386.141144,201.843658 
	C386.044586,213.491165 386.055786,225.140259 386.135040,236.788010 
	C386.155457,239.791550 385.201355,241.615967 381.499329,241.643387 
M370.458710,201.219269 
	C364.798767,201.229004 359.138275,201.290344 353.479095,201.229004 
	C350.113220,201.192520 348.719940,202.593033 348.942139,206.057709 
	C349.186646,209.870987 348.997131,213.712067 348.997040,217.541046 
	C348.996887,223.965378 348.997009,230.389725 348.997009,237.229538 
	C359.610748,237.229538 369.411438,237.331116 379.202698,237.074020 
	C380.192902,237.047989 381.913666,234.885513 381.956848,233.667084 
	C382.216034,226.351624 382.074982,219.022278 382.084747,211.697617 
	C382.098694,201.216904 382.104828,201.216919 370.458710,201.219269 
z"/>
<path fill="#EC9247" opacity="1.000000" stroke="none" 
	d="
M33.888733,171.897781 
	C32.215248,171.192657 30.541765,170.487534 28.307831,169.474884 
	C25.606487,168.171616 23.465591,167.175903 21.324696,166.180191 
	C30.712622,164.416367 40.052410,162.316986 49.498962,160.961838 
	C66.707443,158.493195 83.979271,156.466064 101.669479,154.254700 
	C100.040131,157.726944 97.965981,161.199219 95.130936,164.737213 
	C75.603218,166.507401 56.833050,168.177032 38.076202,169.984894 
	C36.632332,170.124054 35.282349,171.237289 33.888733,171.897781 
z"/>
<path fill="#7D6AA9" opacity="1.000000" stroke="none" 
	d="
M149.880188,149.813568 
	C149.627426,154.114182 149.342834,157.944855 149.001541,162.667023 
	C148.671829,169.742538 148.398819,175.926559 148.125793,182.110596 
	C146.159271,183.423737 144.192734,184.736862 141.792206,185.577820 
	C141.243561,177.614716 141.128922,170.123779 141.082672,162.258575 
	C141.288361,158.552109 141.425659,155.219910 141.639587,151.432724 
	C142.147385,140.473343 142.578537,129.968979 143.009674,119.464607 
	C142.892563,119.176987 142.893585,118.889778 143.269684,118.250443 
	C143.719086,117.608818 143.911545,117.319756 144.104004,117.030685 
	C144.421112,116.614288 144.738220,116.197891 145.290436,115.359650 
	C145.691879,114.635994 145.858215,114.334190 146.024551,114.032387 
	C146.024551,114.032387 146.013107,113.999123 146.335052,113.875229 
	C149.311539,110.783630 151.966080,107.815926 154.620621,104.848228 
	C153.255936,116.701057 151.868744,128.551376 150.542404,140.408493 
	C150.210495,143.375626 150.074448,146.364655 149.880188,149.813568 
z"/>
<path fill="#939393" opacity="1.000000" stroke="none" 
	d="
M275.985779,231.041321 
	C276.398590,228.404510 277.041962,225.778931 277.171112,223.128296 
	C277.372284,218.998688 277.224335,214.852081 277.224335,210.252228 
	C273.812225,210.252228 270.764313,210.252228 266.773529,210.252228 
	C266.773529,215.483353 266.769806,220.882965 266.774780,226.282578 
	C266.778320,230.106262 266.940704,233.938507 266.719269,237.748749 
	C266.647400,238.985840 265.585083,240.165375 264.975800,241.371246 
	C264.186218,240.310135 262.730835,239.261368 262.710907,238.186005 
	C262.529419,228.383041 262.481903,218.572281 262.750031,208.773499 
	C262.781189,207.634201 264.946289,206.532059 266.170837,205.468811 
	C266.362915,205.302063 266.816345,205.425674 267.148560,205.432465 
	C283.510895,205.766907 281.290558,202.774597 281.468658,219.023712 
	C281.532410,224.841888 281.562653,230.663742 281.428864,236.479782 
	C281.308655,241.705688 278.831665,243.688461 273.693542,242.668961 
	C272.696960,242.471237 271.903748,241.248672 271.016724,240.498840 
	C271.844696,239.863724 272.667175,238.692596 273.501526,238.684067 
	C277.641388,238.641693 277.674286,236.357315 276.366394,232.859222 
	C275.989349,231.914825 275.987549,231.478073 275.985779,231.041321 
z"/>
<path fill="#8B8B8B" opacity="1.000000" stroke="none" 
	d="
M254.870636,229.700302 
	C254.870636,223.272034 254.870636,216.843765 254.870636,210.351639 
	C252.810608,210.107925 251.845917,209.918365 250.876663,209.891281 
	C244.177521,209.704071 244.174911,209.714966 244.166168,216.220230 
	C244.156769,223.205994 244.195892,230.192291 244.113693,237.177155 
	C244.094238,238.829498 243.674423,240.477127 243.438782,242.126923 
	C242.911133,242.181534 242.383469,242.236145 241.855804,242.290756 
	C241.386719,240.936600 240.529846,239.587799 240.511124,238.227448 
	C240.385223,229.080963 240.477661,219.931747 240.410980,210.784058 
	C240.385941,207.346298 241.534027,205.856003 245.353333,205.825760 
	C258.140015,205.724518 258.137939,205.567993 258.133087,218.222977 
	C258.130524,224.876175 258.242828,231.532745 258.041473,238.179871 
	C257.998505,239.597717 257.064117,241.945587 256.116974,242.184158 
	C254.000412,242.717331 251.616959,242.191147 249.342224,242.096466 
	C249.431519,241.035278 249.175766,239.313492 249.681396,239.049408 
	C250.758209,238.487000 252.230362,238.681458 253.799698,238.542847 
	C254.041824,237.262863 254.281998,235.993149 254.693893,234.001022 
	C254.867279,232.085846 254.868958,230.893066 254.870636,229.700302 
z"/>
<path fill="#7D6AA9" opacity="1.000000" stroke="none" 
	d="
M141.644043,198.560669 
	C143.783768,196.864258 145.959015,195.634964 148.393524,194.268036 
	C149.320129,208.703751 150.098557,223.273712 150.546646,237.853821 
	C150.622269,240.314438 149.273163,242.818832 148.582321,245.303009 
	C147.303726,243.099777 145.127258,240.986923 144.894882,238.678375 
	C143.567062,225.487289 142.701889,212.249634 141.644043,198.560669 
z"/>
<path fill="#F3A223" opacity="1.000000" stroke="none" 
	d="
M201.348892,162.829666 
	C200.206253,162.318283 199.533630,161.914322 198.293442,161.169495 
	C206.067963,158.082184 213.348740,154.874664 220.867706,152.387192 
	C223.297974,151.583191 226.353729,152.669937 229.521515,152.929932 
	C229.986237,153.137512 230.052826,153.306946 230.073883,154.066498 
	C230.016617,156.308548 230.004883,157.960464 229.993164,159.612396 
	C229.659561,160.030014 229.325974,160.447647 228.383682,161.057098 
	C226.054520,161.883453 224.334030,162.517975 222.613556,163.152496 
	C215.682007,163.080688 208.750473,163.008881 201.348892,162.829666 
z"/>
<path fill="#939393" opacity="1.000000" stroke="none" 
	d="
M238.721497,199.555389 
	C239.632675,198.229752 240.753891,196.369385 241.905533,196.350357 
	C254.552597,196.141464 267.205017,196.165054 279.853699,196.316132 
	C280.942871,196.329132 282.015808,197.702301 283.096252,198.443649 
	C282.306946,199.145401 281.513306,200.462936 280.728973,200.457397 
	C266.800537,200.359146 252.873230,200.100113 238.721497,199.555389 
z"/>
<path fill="#8F8F8F" opacity="1.000000" stroke="none" 
	d="
M208.197968,231.899323 
	C206.487976,231.333099 205.143295,230.737869 203.798615,230.142639 
	C204.236496,229.482773 204.674362,228.822906 205.112244,228.163025 
	C206.523605,227.461212 207.934967,226.759399 209.701141,226.017929 
	C215.698410,225.951950 221.344254,225.816467 226.980606,225.989792 
	C228.131485,226.025192 229.246735,227.220169 230.378403,227.880600 
	C229.244797,228.557404 228.138519,229.757202 226.972763,229.818085 
	C222.551834,230.048950 218.111633,229.911041 213.678650,229.911041 
	C213.478851,230.447891 213.279037,230.984726 213.079239,231.521576 
	C217.713135,233.627747 222.408218,235.612671 226.948288,237.904709 
	C228.574417,238.725632 229.826172,240.288116 231.248779,241.512146 
	C229.301102,241.677002 226.938065,242.633224 225.478897,241.867340 
	C219.686935,238.827286 214.177414,235.249130 208.197968,231.899323 
z"/>
<path fill="#206DA8" opacity="1.000000" stroke="none" 
	d="
M38.590286,263.993195 
	C35.615398,268.789093 32.280186,273.626495 29.006653,278.505280 
	C27.648710,280.529114 26.422638,282.641479 25.176193,285.096344 
	C22.027842,289.035492 18.929771,292.680054 15.588414,296.085907 
	C14.758457,296.931854 13.141237,297.005463 11.885892,297.434113 
	C11.807709,296.062775 11.173543,294.367554 11.750196,293.377716 
	C13.929905,289.636230 16.502651,286.123688 19.006254,282.249207 
	C21.728025,279.645813 24.437384,277.388306 27.000257,274.975220 
	C30.806198,271.391754 34.508450,267.698120 38.590286,263.993195 
z"/>
<path fill="#CC1E32" opacity="1.000000" stroke="none" 
	d="
M131.879044,248.510406 
	C133.595581,249.303772 135.493484,250.318161 137.241226,251.546219 
	C138.673508,252.552597 139.927032,253.813370 141.650482,255.338394 
	C143.006332,256.503479 143.971512,257.291504 145.014481,258.215210 
	C145.195511,258.390991 145.298752,258.431061 145.401993,258.471130 
	C145.293533,258.293549 145.185089,258.115936 145.025238,257.603394 
	C143.998764,256.496277 143.023666,255.724091 142.048584,254.951904 
	C141.809036,253.754120 141.569504,252.556335 141.316650,250.986237 
	C146.468491,256.670807 151.715729,262.661377 156.718491,268.849579 
	C157.557327,269.887177 157.337173,271.780884 157.606354,273.279022 
	C156.083496,272.681274 154.136292,272.491547 153.106094,271.420105 
	C145.962494,263.990631 139.009583,256.377808 131.879044,248.510406 
z"/>
<path fill="#8F8F8F" opacity="1.000000" stroke="none" 
	d="
M363.370483,255.602295 
	C365.020508,257.847382 366.457520,259.799316 367.894501,261.751251 
	C368.292450,261.658508 368.690369,261.565735 369.088318,261.472961 
	C369.088318,257.678070 369.088318,253.883148 369.088318,250.088242 
	C369.639679,250.112747 370.191071,250.137238 370.742432,250.161728 
	C370.742432,255.433731 370.742432,260.705750 370.742432,266.560150 
	C364.666656,266.251923 364.458649,258.744629 359.104034,256.090118 
	C359.104034,260.342682 359.104034,264.286987 359.104034,268.231262 
	C358.532043,268.214661 357.960022,268.198059 357.388031,268.181458 
	C357.388031,262.165222 357.388031,256.149017 357.388031,248.806396 
	C359.796509,251.521027 361.476959,253.415100 363.370483,255.602295 
z"/>
<path fill="#939393" opacity="1.000000" stroke="none" 
	d="
M301.652802,256.138519 
	C301.516388,260.528931 301.376007,264.443909 301.235657,268.358887 
	C300.491699,268.338440 299.747742,268.317993 299.003784,268.297546 
	C299.003784,262.812439 298.921478,257.324432 299.113892,251.846085 
	C299.136505,251.202347 300.590973,250.340500 301.524292,250.067703 
	C302.597443,249.754059 303.967926,249.640549 304.965149,250.043808 
	C307.529846,251.080963 310.908691,251.878983 312.119080,253.884796 
	C312.965393,255.287292 310.772888,258.523590 309.937653,260.940826 
	C309.539703,260.849976 309.141754,260.759094 308.743805,260.668243 
	C310.272552,262.985107 311.801300,265.301941 313.330078,267.618805 
	C312.821259,268.015503 312.312439,268.412201 311.803619,268.808899 
	C308.967377,265.697449 306.131165,262.585999 303.454895,259.650055 
	C305.855377,257.790894 307.834412,256.258118 309.813477,254.725327 
	C308.760834,254.081589 307.729706,252.946808 306.650970,252.899612 
	C304.607849,252.810257 301.604858,251.717545 301.652802,256.138519 
z"/>
<path fill="#959595" opacity="1.000000" stroke="none" 
	d="
M221.898117,251.890640 
	C222.916199,251.215988 224.540649,250.550461 224.562408,250.599243 
	C227.090424,256.271301 229.499435,261.996368 230.840561,267.898804 
	C228.443298,266.247345 226.107971,263.421814 223.630478,263.291077 
	C221.376434,263.172180 218.967926,265.980835 215.962448,267.930389 
	C216.496124,262.288025 220.026428,257.522614 221.898117,251.890640 
z"/>
<path fill="#959595" opacity="1.000000" stroke="none" 
	d="
M386.064514,257.848267 
	C387.357635,261.184601 388.491394,264.170288 390.083130,268.362091 
	C386.445099,265.893036 384.195496,263.179291 381.883789,263.125336 
	C379.487183,263.069397 377.030457,265.590424 373.314056,267.721954 
	C375.963013,261.241455 378.369141,255.355072 380.775269,249.468689 
	C381.306885,249.405304 381.838531,249.341934 382.370178,249.278564 
	C383.548492,252.018250 384.726807,254.757950 386.064514,257.848267 
z"/>
<path fill="#9D9D9D" opacity="1.000000" stroke="none" 
	d="
M348.804077,253.503448 
	C348.794952,258.859100 348.778137,263.775269 348.761353,268.691437 
	C348.010437,268.696289 347.259521,268.701111 346.508636,268.705933 
	C346.246185,266.394043 345.983765,264.082153 345.675110,261.363342 
	C343.328003,261.363342 340.946503,261.363342 338.265656,261.363342 
	C337.932129,263.810883 337.598053,266.262695 337.263977,268.714508 
	C336.759308,268.683838 336.254639,268.653198 335.749969,268.622559 
	C335.749969,262.576294 335.749969,256.530029 335.749969,250.483795 
	C336.167175,250.400330 336.584381,250.316864 337.001587,250.233398 
	C337.435760,252.580368 337.869934,254.927338 338.381287,257.691559 
	C340.572174,257.691559 342.962250,257.691559 345.690521,257.691559 
	C345.919861,255.281693 346.146027,252.905426 346.372192,250.529175 
	C346.788666,250.424133 347.205109,250.319077 347.621582,250.214020 
	C348.013184,251.164001 348.404785,252.113983 348.804077,253.503448 
z"/>
<path fill="#1D4D89" opacity="1.000000" stroke="none" 
	d="
M154.735626,104.460464 
	C151.966080,107.815926 149.311539,110.783630 146.349457,113.886589 
	C147.042816,111.206551 148.009125,108.378258 149.060532,105.581947 
	C149.523834,104.349731 150.160034,103.182510 150.717743,101.985786 
	C148.951920,101.455292 147.191574,100.559074 145.418198,100.532539 
	C144.367767,100.516823 143.296783,101.874184 141.861511,102.562363 
	C143.010681,100.367737 144.620224,98.280418 146.034683,96.068352 
	C147.910568,93.134659 150.872375,91.745758 153.525787,93.528526 
	C155.113800,94.595474 155.389359,97.911591 155.808914,100.295242 
	C156.014282,101.462036 155.202225,102.807899 154.735626,104.460464 
z"/>
<path fill="#959595" opacity="1.000000" stroke="none" 
	d="
M202.152023,258.031006 
	C202.138214,249.437622 205.226395,247.678589 213.730316,252.155563 
	C211.061508,252.485489 208.392700,252.815414 205.296829,253.198120 
	C205.192169,254.494736 205.079971,255.884857 204.934311,257.689697 
	C207.725021,257.862213 210.149933,258.012115 212.574829,258.162018 
	C212.690887,258.671753 212.806946,259.181488 212.922989,259.691223 
	C210.486008,260.205261 208.049026,260.719330 205.285095,261.302368 
	C205.285095,262.583588 205.285095,263.976807 205.285095,265.694031 
	C208.095154,265.866394 210.777527,266.030914 213.459885,266.195435 
	C213.455246,266.850311 213.450607,267.505157 213.445953,268.160034 
	C210.319244,268.302063 207.104645,268.899780 204.116486,268.323456 
	C203.152069,268.137451 202.599899,264.903046 202.201477,262.991791 
	C201.902176,261.556091 202.150192,260.006287 202.152023,258.031006 
z"/>
<path fill="#939393" opacity="1.000000" stroke="none" 
	d="
M295.053650,253.114441 
	C295.704315,254.132767 296.239960,254.810562 296.489990,255.581039 
	C298.092285,260.519104 296.428253,265.302826 292.372833,267.099213 
	C288.510101,268.810242 285.188019,267.805237 282.709290,264.459747 
	C280.015991,260.824646 280.557373,255.813492 283.801544,252.684692 
	C287.227570,249.380493 290.106537,249.415054 295.053650,253.114441 
M291.595825,253.681961 
	C288.413879,252.083420 285.404663,253.181870 284.675415,256.120148 
	C284.081909,258.511505 285.197174,261.719482 286.529877,263.993958 
	C287.029358,264.846405 290.799408,264.842224 292.173401,263.903748 
	C295.104462,261.901794 295.461670,258.712036 293.588684,255.533951 
	C293.261597,254.978897 292.702881,254.560318 291.595825,253.681961 
z"/>
<path fill="#939393" opacity="1.000000" stroke="none" 
	d="
M243.313232,264.463806 
	C243.991226,265.012604 244.337692,265.696411 244.684174,266.380219 
	C243.078781,267.121552 241.478638,268.469147 239.866928,268.483124 
	C236.031677,268.516357 233.380646,266.394684 232.132751,262.658142 
	C230.655792,258.235718 231.624313,254.455536 235.250992,251.549561 
	C238.241837,249.153046 241.398743,249.516022 244.401703,251.660843 
	C244.858322,251.986984 245.072632,252.652390 246.322906,254.600296 
	C240.811356,252.587280 236.019623,251.381012 234.683395,257.422791 
	C234.235199,259.449371 235.023285,262.632965 236.466553,263.933044 
	C237.775818,265.112427 240.744598,264.449493 243.313232,264.463806 
z"/>
<path fill="#919191" opacity="1.000000" stroke="none" 
	d="
M323.287964,264.518250 
	C326.430969,264.993744 329.294098,265.171692 332.589325,265.376526 
	C330.633392,268.692566 327.861206,269.422241 324.628143,268.371643 
	C320.183319,266.927277 318.522797,263.306244 318.681061,259.013245 
	C318.842865,254.623444 321.108002,251.271103 325.597839,250.381882 
	C328.349335,249.836929 331.081207,250.532639 331.911957,253.057159 
	C328.640411,253.849136 324.571869,253.673035 322.939697,255.581055 
	C321.526764,257.232727 322.878448,261.249390 323.287964,264.518250 
z"/>
<path fill="#939393" opacity="1.000000" stroke="none" 
	d="
M254.494568,229.785934 
	C254.868958,230.893066 254.867279,232.085846 254.779602,233.512772 
	C251.517471,235.517410 249.894043,234.585724 249.276917,230.989822 
	C248.413025,225.956070 247.163162,220.988754 246.287308,215.956680 
	C246.098572,214.872223 246.799484,213.632935 247.090622,212.464966 
	C248.072678,213.288864 249.611435,213.934509 249.942047,214.966995 
	C251.514404,219.877487 252.757935,224.893265 254.494568,229.785934 
z"/>
<path fill="#8F8F8F" opacity="1.000000" stroke="none" 
	d="
M269.280212,267.707092 
	C269.019592,263.237579 269.228485,259.066895 268.867615,254.946106 
	C268.514984,250.919235 270.014191,249.458603 273.914154,249.976028 
	C275.910278,250.240875 277.939728,250.254211 279.954132,250.381210 
	C280.005005,250.813065 280.055847,251.244919 280.106720,251.676773 
	C279.214844,252.033585 278.333435,252.419907 277.428925,252.741180 
	C275.422546,253.453857 271.746887,251.037216 271.665253,255.261093 
	C271.574371,259.963440 275.578522,257.190826 277.642395,258.016388 
	C278.200745,258.239716 278.782349,258.404938 279.510925,259.819550 
	C277.178772,260.230927 274.846619,260.642334 272.843414,260.995697 
	C271.688904,263.424164 270.594604,265.725952 269.280212,267.707092 
z"/>
<path fill="#8B8B8B" opacity="1.000000" stroke="none" 
	d="
M247.919800,254.280411 
	C248.181534,252.870270 248.429932,251.927505 248.678314,250.984741 
	C249.062180,251.012085 249.446045,251.039444 249.829910,251.066803 
	C249.958130,253.091492 250.086349,255.116165 250.242264,257.577942 
	C253.232437,257.577942 256.234650,257.577942 259.559174,257.577942 
	C259.747192,255.154114 259.930664,252.788773 260.114105,250.423431 
	C260.539337,250.420853 260.964539,250.418259 261.389771,250.415665 
	C261.389771,256.184357 261.389771,261.953064 261.389771,267.721771 
	C261.112000,267.805634 260.834229,267.889465 260.556458,267.973297 
	C260.144562,265.687378 259.732666,263.401459 259.291321,260.952148 
	C256.313324,260.952148 253.548401,260.952148 250.468170,260.952148 
	C250.193634,263.240112 249.914825,265.563721 249.636032,267.887329 
	C249.059494,267.901978 248.482971,267.916595 247.906433,267.931244 
	C247.906433,263.536743 247.906433,259.142273 247.919800,254.280411 
z"/>
<path fill="#919191" opacity="1.000000" stroke="none" 
	d="
M276.000854,230.626038 
	C275.987549,231.478073 275.989349,231.914825 275.996765,232.679260 
	C274.561554,236.396118 273.256104,234.627182 272.715851,232.678253 
	C271.127197,226.947311 269.770172,221.147552 268.522766,215.331772 
	C268.344482,214.500610 269.274384,213.431747 269.691437,212.472900 
	C270.615234,213.233353 272.111420,213.838226 272.367432,214.780182 
	C273.752991,219.877686 274.831604,225.058594 276.000854,230.626038 
z"/>
<path fill="#919191" opacity="1.000000" stroke="none" 
	d="
M189.111130,252.836304 
	C187.470306,252.488525 186.257294,252.188278 185.044266,251.888046 
	C185.139008,251.474609 185.233749,251.061188 185.328491,250.647766 
	C189.764587,250.647766 194.200684,250.647766 198.636765,250.647766 
	C198.693298,251.048325 198.749817,251.448883 198.806351,251.849442 
	C197.244171,252.370544 195.682007,252.891632 193.235504,253.707718 
	C193.235504,258.361755 193.235504,263.332245 193.235504,268.302734 
	C192.638474,268.330292 192.041443,268.357849 191.444412,268.385406 
	C191.259628,266.652527 191.101425,264.916290 190.884430,263.187439 
	C190.453064,259.750763 189.989304,256.318146 189.111130,252.836304 
z"/>
<path fill="#CC1E32" opacity="1.000000" stroke="none" 
	d="
M20.951824,166.178467 
	C23.465591,167.175903 25.606487,168.171616 27.968018,169.405304 
	C25.455315,171.064209 22.721975,172.485123 19.648312,173.937057 
	C18.133379,172.473953 16.958773,170.979843 15.784163,169.485718 
	C17.382423,168.382721 18.980686,167.279724 20.951824,166.178467 
z"/>
<path fill="#959595" opacity="1.000000" stroke="none" 
	d="
M353.956665,259.974731 
	C353.956818,263.206757 353.956818,265.963104 353.956818,268.719482 
	C353.247559,268.685699 352.538330,268.651947 351.829071,268.618164 
	C351.829071,262.554504 351.829071,256.490845 351.829071,250.427200 
	C352.463867,250.398300 353.098663,250.369415 353.733459,250.340515 
	C353.807800,253.393387 353.882141,256.446259 353.956665,259.974731 
z"/>
<path fill="#8F8F8F" opacity="1.000000" stroke="none" 
	d="
M204.537598,225.983154 
	C203.691772,227.090515 202.379318,228.158859 201.034348,229.476898 
	C198.625504,229.775192 196.249176,229.823776 193.343109,229.457886 
	C191.210220,228.050125 189.607071,227.056839 188.003937,226.063568 
	C193.359619,226.023758 198.715286,225.983948 204.537598,225.983154 
z"/>
<path fill="#CC1E32" opacity="1.000000" stroke="none" 
	d="
M126.149063,234.511169 
	C121.933777,230.962082 117.598541,227.096970 113.221191,222.874664 
	C117.462433,226.410019 121.745773,230.302582 126.149063,234.511169 
z"/>
<path fill="#919191" opacity="1.000000" stroke="none" 
	d="
M187.633362,226.083954 
	C189.607071,227.056839 191.210220,228.050125 192.905151,229.376511 
	C191.357574,229.764709 189.645874,230.144592 188.095642,229.799362 
	C185.723129,229.270996 185.230179,227.859970 187.633362,226.083954 
z"/>
<path fill="#CC1E32" opacity="1.000000" stroke="none" 
	d="
M112.546249,221.724319 
	C110.555984,220.507843 108.419945,219.005081 106.187965,217.165573 
	C106.581245,216.911575 107.070465,216.994339 107.807602,217.115265 
	C109.503830,218.581650 110.952156,220.009842 112.546249,221.724319 
z"/>
<path fill="#CC1E32" opacity="1.000000" stroke="none" 
	d="
M118.869881,236.534149 
	C120.712669,237.722565 122.683449,239.215698 124.640503,241.074036 
	C122.750481,239.905792 120.874176,238.372314 118.869881,236.534149 
z"/>
<path fill="#CC1E32" opacity="1.000000" stroke="none" 
	d="
M140.269608,249.245972 
	C138.639709,247.880753 136.870422,246.223618 135.108185,244.203003 
	C136.786880,245.544373 138.458542,247.249207 140.269608,249.245972 
z"/>
<path fill="#CC1E32" opacity="1.000000" stroke="none" 
	d="
M132.127640,240.536285 
	C130.213501,239.056427 128.177963,237.264267 126.173615,235.113785 
	C128.138611,236.578308 130.072418,238.401154 132.127640,240.536285 
z"/>
<path fill="#CC1E32" opacity="1.000000" stroke="none" 
	d="
M110.723602,229.687683 
	C112.587585,230.849564 114.605736,232.300705 116.582466,234.108337 
	C114.653282,232.968872 112.765526,231.472900 110.723602,229.687683 
z"/>
<path fill="#ED9443" opacity="1.000000" stroke="none" 
	d="
M230.293167,159.523880 
	C230.004883,157.960464 230.016617,156.308548 230.039612,154.337433 
	C230.231644,155.823959 230.412399,157.629669 230.293167,159.523880 
z"/>
<path fill="#CC1E32" opacity="1.000000" stroke="none" 
	d="
M100.656815,222.217133 
	C100.223526,221.850693 100.125092,221.612518 100.043976,221.181122 
	C101.925308,222.232758 103.791191,223.476822 105.655762,225.076523 
	C104.099564,224.403503 102.544685,223.374847 100.656815,222.217133 
z"/>
<path fill="#8F8F8F" opacity="1.000000" stroke="none" 
	d="
M197.372772,240.094330 
	C197.330414,237.770508 198.169556,236.307556 201.018845,238.087006 
	C200.043839,238.959534 198.874390,239.514893 197.372772,240.094330 
z"/>
<path fill="#CC1E32" opacity="1.000000" stroke="none" 
	d="
M124.710449,241.685516 
	C125.994301,242.459534 127.409683,243.526413 128.776306,244.946503 
	C127.432358,244.192612 126.137169,243.085495 124.710449,241.685516 
z"/>
<path fill="#ED9443" opacity="1.000000" stroke="none" 
	d="
M222.611176,163.337952 
	C224.334030,162.517975 226.054520,161.883453 228.169525,161.220200 
	C226.842422,162.062729 225.120789,162.933975 222.994568,163.849564 
	C222.589966,163.893906 222.608795,163.523422 222.611176,163.337952 
z"/>
<path fill="#CC1E32" opacity="1.000000" stroke="none" 
	d="
M128.791077,245.526917 
	C129.735123,245.998062 130.792999,246.767822 131.827560,247.889221 
	C130.837799,247.435760 129.871353,246.630646 128.791077,245.526917 
z"/>
<path fill="#CC1E32" opacity="1.000000" stroke="none" 
	d="
M135.070709,243.577606 
	C134.199997,243.070450 133.238052,242.255142 132.207794,241.095245 
	C133.086166,241.590271 134.032806,242.429886 135.070709,243.577606 
z"/>
<path fill="#CC1E32" opacity="1.000000" stroke="none" 
	d="
M107.946976,227.417938 
	C108.767799,227.664139 109.707733,228.199615 110.632057,229.095123 
	C109.766327,228.872513 108.916214,228.289856 107.946976,227.417938 
z"/>
<path fill="#1D4D89" opacity="1.000000" stroke="none" 
	d="
M137.366516,107.807602 
	C137.146484,108.629021 136.667557,109.602562 135.818542,110.497856 
	C136.001511,109.599648 136.554565,108.779686 137.366516,107.807602 
z"/>
<path fill="#CC1E32" opacity="1.000000" stroke="none" 
	d="
M105.761139,225.676636 
	C106.366394,225.758972 107.111061,226.103577 107.868217,226.811584 
	C107.220657,226.762955 106.560608,226.350937 105.761139,225.676636 
z"/>
<path fill="#CC1E32" opacity="1.000000" stroke="none" 
	d="
M116.712311,234.741180 
	C117.277031,234.864029 117.992157,235.241776 118.758186,235.954193 
	C118.160294,235.857925 117.511497,235.427002 116.712311,234.741180 
z"/>
<path fill="#1D4D89" opacity="1.000000" stroke="none" 
	d="
M140.502136,103.745667 
	C140.521622,104.076630 140.322357,104.480988 139.883331,104.947708 
	C139.856827,104.613060 140.070099,104.216064 140.502136,103.745667 
z"/>
<path fill="#1D4D89" opacity="1.000000" stroke="none" 
	d="
M138.707214,106.059250 
	C138.727661,106.497719 138.482513,107.065834 137.911224,107.674545 
	C137.870590,107.206398 138.156097,106.697655 138.707214,106.059250 
z"/>
<path fill="#1D4D89" opacity="1.000000" stroke="none" 
	d="
M141.259888,102.702744 
	C141.396408,102.923782 141.319870,103.279938 140.950958,103.694542 
	C140.787979,103.447945 140.917389,103.142899 141.259888,102.702744 
z"/>
<path fill="#1D4D89" opacity="1.000000" stroke="none" 
	d="
M135.175537,110.710266 
	C135.318909,110.926765 135.264267,111.277443 134.915466,111.672211 
	C134.631134,111.381187 134.749878,111.090569 135.175537,110.710266 
z"/>
<path fill="#1D4D89" opacity="1.000000" stroke="none" 
	d="
M134.452377,111.757942 
	C134.560440,111.991875 134.407440,112.346382 133.965973,112.792709 
	C133.848755,112.549179 134.020035,112.213852 134.452377,111.757942 
z"/>
<path fill="#CC1E32" opacity="1.000000" stroke="none" 
	d="
M141.297729,250.419617 
	C141.039658,250.503738 140.711639,250.339859 140.401550,249.877686 
	C140.688904,249.776810 140.958328,249.974213 141.297729,250.419617 
z"/>
<path fill="#FAFCFB" opacity="1.000000" stroke="none" 
	d="
M141.014297,162.632858 
	C141.128922,170.123779 141.243561,177.614716 141.436966,185.569595 
	C140.172989,187.162079 138.942001,188.469131 137.469803,189.390930 
	C125.644188,196.795212 113.773087,204.126846 101.661728,211.755341 
	C95.944931,208.028885 90.482300,204.027786 84.911896,199.721436 
	C92.247826,189.207794 99.673653,178.986267 107.150566,168.802246 
	C108.616554,166.805481 110.280205,164.953827 112.505661,163.131104 
	C122.443840,163.028915 131.729065,162.830887 141.014297,162.632858 
z"/>
<path fill="#FBF8F6" opacity="1.000000" stroke="none" 
	d="
M34.251308,171.994873 
	C35.282349,171.237289 36.632332,170.124054 38.076202,169.984894 
	C56.833050,168.177032 75.603218,166.507401 94.849762,164.900330 
	C88.904678,174.409271 82.479858,183.820831 75.916557,193.546265 
	C62.056675,186.604095 48.335281,179.348022 34.251308,171.994873 
z"/>
<path fill="#F8F8F8" opacity="1.000000" stroke="none" 
	d="
M142.731873,119.698196 
	C142.578537,129.968979 142.147385,140.473343 141.338028,151.205338 
	C133.759445,151.643707 126.559059,151.854462 119.358673,152.065216 
	C127.057137,141.354065 134.755600,130.642914 142.731873,119.698196 
z"/>
<path fill="#EC9247" opacity="1.000000" stroke="none" 
	d="
M119.131851,152.260803 
	C126.559059,151.854462 133.759445,151.643707 141.261383,151.660339 
	C141.425659,155.219910 141.288361,158.552109 141.082672,162.258575 
	C131.729065,162.830887 122.443840,163.028915 112.795334,162.992126 
	C114.589706,159.323654 116.747360,155.890015 119.131851,152.260803 
z"/>
<path fill="#1D4D89" opacity="1.000000" stroke="none" 
	d="
M145.779541,114.150665 
	C145.858215,114.334190 145.691879,114.635994 145.307251,115.087692 
	C145.237488,114.914711 145.386002,114.591827 145.779541,114.150665 
z"/>
<path fill="#1D4D89" opacity="1.000000" stroke="none" 
	d="
M143.851471,117.135208 
	C143.911545,117.319756 143.719086,117.608818 143.298615,118.032532 
	C143.246704,117.858032 143.422836,117.548882 143.851471,117.135208 
z"/>
<path fill="#F8FCF9" opacity="1.000000" stroke="none" 
	d="
M148.510483,182.132202 
	C148.398819,175.926559 148.671829,169.742538 149.024704,163.098282 
	C162.914886,162.737793 176.725204,162.837524 191.046326,162.997025 
	C177.994644,169.381485 164.435791,175.713989 150.856857,182.003159 
	C150.299301,182.261398 149.553345,182.112854 148.510483,182.132202 
z"/>
<path fill="#CC1E32" opacity="1.000000" stroke="none" 
	d="
M106.033981,216.622589 
	C105.873970,216.746460 105.601456,216.621185 105.370300,216.335892 
	C105.581604,216.241730 105.751541,216.307587 106.033981,216.622589 
z"/>
<path fill="#F3F9FA" opacity="1.000000" stroke="none" 
	d="
M93.564865,217.140991 
	C83.522232,225.192154 73.294075,232.897003 63.146046,240.705994 
	C57.966259,244.691895 52.930222,248.864594 47.478661,252.900421 
	C57.700005,237.957474 68.271904,223.066956 79.006767,207.833771 
	C83.917320,210.606659 88.664909,213.722229 93.564865,217.140991 
z"/>
<path fill="#206DA8" opacity="1.000000" stroke="none" 
	d="
M40.655800,262.040100 
	C40.833897,262.269806 40.680264,262.541718 40.159782,262.814331 
	C40.044086,262.602509 40.221130,262.358276 40.655800,262.040100 
z"/>
<path fill="#FAFCFB" opacity="1.000000" stroke="none" 
	d="
M319.134705,225.275116 
	C316.314697,225.489059 314.891937,224.879181 314.992310,222.070328 
	C315.150787,217.634384 315.034485,213.188644 315.034485,208.058533 
	C319.654114,208.058533 323.900421,207.894928 328.116058,208.182098 
	C329.080505,208.247803 330.175415,209.737778 330.766510,210.815598 
	C331.187164,211.582642 330.867920,212.757706 330.871765,213.750702 
	C330.916534,225.276779 330.916199,225.276779 319.134705,225.275116 
z"/>
<path fill="#FAFCFB" opacity="1.000000" stroke="none" 
	d="
M302.141235,208.032471 
	C305.227936,208.032532 307.841187,208.032532 310.708466,208.032532 
	C310.708466,213.960571 310.708466,219.341095 310.708466,224.993530 
	C305.842316,224.993530 301.281189,224.993530 296.091583,224.993530 
	C296.091583,220.118927 296.027863,215.515015 296.110229,210.913712 
	C296.186188,206.671051 299.534393,208.461166 302.141235,208.032471 
z"/>
<path fill="#F8F8F8" opacity="1.000000" stroke="none" 
	d="
M370.949097,201.219238 
	C382.104828,201.216919 382.098694,201.216904 382.084747,211.697617 
	C382.074982,219.022278 382.216034,226.351624 381.956848,233.667084 
	C381.913666,234.885513 380.192902,237.047989 379.202698,237.074020 
	C369.411438,237.331116 359.610748,237.229538 348.997009,237.229538 
	C348.997009,230.389725 348.996887,223.965378 348.997040,217.541046 
	C348.997131,213.712067 349.186646,209.870987 348.942139,206.057709 
	C348.719940,202.593033 350.113220,201.192520 353.479095,201.229004 
	C359.138275,201.290344 364.798767,201.229004 370.949097,201.219238 
M367.459259,205.025467 
	C363.633514,205.024643 359.800110,204.890976 355.987091,205.111023 
	C354.959991,205.170288 353.994934,206.303909 353.001373,206.944382 
	C353.947571,207.614212 354.834656,208.727127 355.852112,208.862885 
	C358.062347,209.157837 360.339172,208.953888 362.505707,208.953888 
	C363.086639,215.441696 363.078674,215.351242 357.534607,215.840149 
	C356.286377,215.950241 355.115143,216.932922 353.908447,217.513885 
	C355.121185,218.282181 356.245758,219.358826 357.569916,219.737442 
	C359.082428,220.169891 360.772583,219.981064 362.504669,220.068192 
	C362.504669,223.482574 362.504669,226.517761 362.504669,229.939926 
	C359.316071,229.939926 356.495819,229.786545 353.710938,230.033035 
	C352.871796,230.107315 352.131012,231.292618 351.345154,231.968979 
	C351.998291,232.594330 352.643005,233.753403 353.305817,233.763855 
	C361.453369,233.892181 369.604218,233.896362 377.751953,233.778793 
	C378.456726,233.768631 379.566284,232.752380 379.709442,232.045792 
	C379.824646,231.477158 378.805878,230.630127 378.212585,229.977158 
	C377.098480,228.750931 375.808197,227.666489 374.815033,226.353760 
	C373.817444,225.035110 373.092499,223.510178 372.248077,222.075653 
	C371.655853,222.257111 371.063629,222.438568 370.471436,222.620026 
	C370.806824,224.923141 371.142181,227.226273 371.523682,229.846100 
	C370.034729,229.752106 368.631622,229.663544 367.294220,229.579132 
	C367.294220,226.143097 367.294220,223.108124 367.294220,219.781082 
	C370.243835,219.781082 372.758545,219.997192 375.202179,219.674652 
	C376.178619,219.545761 376.998260,218.228729 377.889252,217.452530 
	C377.010040,216.902451 376.164001,215.954498 375.245331,215.878006 
	C372.646729,215.661636 370.018341,215.802292 367.136230,215.802292 
	C367.136230,213.316788 367.136230,211.416580 367.136230,208.936127 
	C370.152405,208.936127 372.952972,209.099945 375.716827,208.852753 
	C376.771484,208.758423 377.741882,207.722198 378.750702,207.115250 
	C377.807312,206.422180 376.921082,205.251938 375.909180,205.130722 
	C373.448975,204.835999 370.930450,205.028473 367.459259,205.025467 
z"/>
<path fill="#DA0E28" opacity="1.000000" stroke="none" 
	d="
M144.936691,258.079529 
	C143.971512,257.291504 143.006332,256.503479 141.996063,255.382385 
	C141.950943,255.049347 141.998993,255.001068 142.023788,254.976486 
	C143.023666,255.724091 143.998764,256.496277 144.988190,257.636658 
	C145.002548,258.004852 144.936691,258.079529 144.936691,258.079529 
z"/>
<path fill="#DA0E28" opacity="1.000000" stroke="none" 
	d="
M145.039581,257.971619 
	C145.185089,258.115936 145.293533,258.293549 145.401993,258.471130 
	C145.298752,258.431061 145.195511,258.390991 145.014481,258.215210 
	C144.936691,258.079529 145.002548,258.004852 145.039581,257.971619 
z"/>
<path fill="#F8F8F8" opacity="1.000000" stroke="none" 
	d="
M291.923492,253.880341 
	C292.702881,254.560318 293.261597,254.978897 293.588684,255.533951 
	C295.461670,258.712036 295.104462,261.901794 292.173401,263.903748 
	C290.799408,264.842224 287.029358,264.846405 286.529877,263.993958 
	C285.197174,261.719482 284.081909,258.511505 284.675415,256.120148 
	C285.404663,253.181870 288.413879,252.083420 291.923492,253.880341 
z"/>
<path fill="#919191" opacity="1.000000" stroke="none" 
	d="
M367.947327,205.025085 
	C370.930450,205.028473 373.448975,204.835999 375.909180,205.130722 
	C376.921082,205.251938 377.807312,206.422180 378.750702,207.115250 
	C377.741882,207.722198 376.771484,208.758423 375.716827,208.852753 
	C372.952972,209.099945 370.152405,208.936127 367.136230,208.936127 
	C367.136230,211.416580 367.136230,213.316788 367.136230,215.802292 
	C370.018341,215.802292 372.646729,215.661636 375.245331,215.878006 
	C376.164001,215.954498 377.010040,216.902451 377.889252,217.452545 
	C376.998260,218.228729 376.178619,219.545761 375.202179,219.674652 
	C372.758545,219.997192 370.243835,219.781082 367.294220,219.781082 
	C367.294220,223.108124 367.294220,226.143097 367.294220,229.579132 
	C368.631622,229.663544 370.034729,229.752106 371.523682,229.846100 
	C371.142181,227.226273 370.806824,224.923141 370.471436,222.620026 
	C371.063629,222.438568 371.655853,222.257111 372.248077,222.075653 
	C373.092499,223.510178 373.817444,225.035110 374.815033,226.353760 
	C375.808197,227.666489 377.098480,228.750931 378.212585,229.977158 
	C378.805878,230.630127 379.824646,231.477158 379.709442,232.045792 
	C379.566284,232.752380 378.456726,233.768631 377.751953,233.778793 
	C369.604218,233.896362 361.453369,233.892181 353.305817,233.763855 
	C352.643005,233.753403 351.998291,232.594330 351.345154,231.968979 
	C352.131012,231.292618 352.871796,230.107315 353.710938,230.033035 
	C356.495819,229.786545 359.316071,229.939926 362.504669,229.939926 
	C362.504669,226.517761 362.504669,223.482574 362.504669,220.068192 
	C360.772583,219.981064 359.082428,220.169891 357.569916,219.737442 
	C356.245758,219.358826 355.121185,218.282181 353.908447,217.513885 
	C355.115143,216.932922 356.286377,215.950241 357.534607,215.840149 
	C363.078674,215.351242 363.086639,215.441696 362.505707,208.953888 
	C360.339172,208.953888 358.062347,209.157837 355.852112,208.862885 
	C354.834656,208.727127 353.947571,207.614212 353.001373,206.944382 
	C353.994934,206.303909 354.959991,205.170288 355.987091,205.111023 
	C359.800110,204.890976 363.633514,205.024643 367.947327,205.025085 
z"/>
</svg>