<svg xmlns="http://www.w3.org/2000/svg" version="1.0" preserveAspectRatio="xMidYMid meet" viewBox="4.11 4 94.65 89.95">
<metadata>
Created by potrace 1.10, written by Peter Selinger 2001-2011
</metadata>
<g transform="translate(0.000000,100.000000) scale(0.100000,-0.100000)" fill="#3387c7" stroke="none">
<path d="M666 939 c-35 -19 -44 -20 -102 -10 -45 8 -83 9 -126 2 -35 -6 -90 -9 -123 -8 l-60 2 0 -33 c0 -41 -22 -56 -61 -42 -43 17 -54 7 -54 -52 0 -41 9 -71 45 -145 25 -50 45 -97 45 -103 0 -19 -69 -102 -96 -117 -23 -11 -30 -11 -51 2 -18 12 -21 20 -14 33 5 9 12 37 16 62 3 25 18 80 32 123 14 43 22 81 19 84 -10 11 -64 -118 -71 -170 -3 -29 -11 -62 -18 -75 -9 -18 -8 -30 5 -55 30 -59 39 -102 28 -131 -5 -15 -10 -37 -10 -48 0 -18 5 -20 33 -15 43 7 63 -19 45 -58 -15 -34 -2 -46 59 -52 26 -3 77 -19 111 -36 112 -54 298 -47 388 14 32 23 31 23 -85 -12 -86 -25 -185 -22 -286 9 l-60 18 86 12 c47 7 113 20 145 28 69 19 116 19 155 -1 15 -8 50 -20 78 -26 67 -14 92 -1 89 47 -3 41 -10 43 -33 7 -10 -16 -12 -22 -4 -15 17 16 29 15 29 -2 0 -8 -9 -18 -20 -21 -23 -7 -116 17 -144 38 -18 13 -15 16 44 48 36 19 90 58 122 88 32 29 60 52 62 50 12 -12 8 -48 -8 -71 -10 -15 -16 -33 -13 -40 3 -8 11 1 18 20 18 43 31 41 27 -6 -3 -32 -6 -37 -28 -37 -29 0 -45 -16 -27 -27 21 -14 65 -9 71 8 9 23 7 69 -4 99 -12 31 7 107 45 180 33 63 30 89 -10 93 -26 3 -33 10 -52 61 -13 32 -23 67 -23 78 0 20 -14 37 -49 58 -10 5 -36 24 -58 40 -40 29 -41 31 -36 78 5 41 4 47 -13 47 -10 -1 -36 -10 -58 -21z m54 -35 c0 -21 -3 -25 -17 -19 -68 28 -67 12 4 -35 64 -43 153 -122 153 -135 0 -6 -20 -33 -44 -60 l-43 -50 -29 34 c-16 19 -34 42 -41 51 -6 9 -43 43 -82 75 -39 32 -71 62 -71 66 0 12 133 99 152 99 13 0 18 -8 18 -26z m-356 -4 c69 -23 126 -57 126 -73 0 -17 -217 -237 -233 -237 -19 0 -85 134 -93 187 -5 34 -3 44 10 49 26 10 31 -4 11 -26 -10 -11 -13 -20 -7 -20 6 0 17 8 24 18 17 22 65 55 106 71 17 8 32 18 32 23 0 6 -8 7 -17 3 -40 -16 -53 -17 -53 -3 0 34 17 35 94 8z m216 -20 c-44 -37 -59 -37 -123 0 l-52 30 105 0 104 0 -34 -30z m65 -171 c54 -52 95 -99 95 -110 0 -52 -310 -203 -344 -169 -6 6 -18 10 -27 10 -26 0 -79 73 -79 107 0 46 202 248 252 252 4 1 50 -40 103 -90z m265 -178 c6 -41 6 -70 -1 -82 -11 -21 -39 -26 -39 -8 0 6 -15 37 -34 68 -48 79 -48 93 -1 140 l39 41 14 -48 c7 -26 17 -76 22 -111z m49 35 c8 -9 8 -21 0 -45 -15 -43 -24 -39 -27 14 -2 46 6 56 27 31z m-173 -19 c27 -34 74 -121 74 -136 0 -24 -64 -81 -150 -131 -96 -56 -127 -51 -231 36 -43 37 -78 72 -76 78 2 5 25 15 53 22 99 24 230 88 265 130 8 10 21 13 38 9 14 -4 27 -7 27 -8z m-487 -84 l40 -52 -53 -6 c-55 -7 -116 0 -116 14 0 13 73 102 80 99 5 -2 26 -26 49 -55z m-179 -83 c0 -9 -19 -24 -24 -19 -2 2 -7 15 -11 27 -6 22 -5 23 14 13 12 -7 21 -16 21 -21z m241 -8 c14 -9 61 -45 103 -79 43 -35 82 -63 87 -63 22 0 1 -24 -27 -32 -147 -43 -332 -60 -354 -33 -22 26 0 38 26 14 39 -36 41 -12 3 29 -19 20 -48 54 -63 75 -25 34 -27 41 -16 67 15 35 23 38 130 38 63 0 92 -4 111 -16z m-241 -104 c0 -9 -24 -11 -32 -2 -3 3 -3 15 0 26 5 20 6 20 19 3 7 -11 13 -22 13 -27z"/>
</g>
</svg>